<?xml version="1.0" encoding="UTF-8" standalone="no"?>
<!DOCTYPE svg PUBLIC "-//W3C//DTD SVG 1.1//EN"
 "http://www.w3.org/Graphics/SVG/1.1/DTD/svg11.dtd">
<!-- Generated by graphviz version 2.38.0 (20140413.2041)
 -->
<!-- Title: debug.h Pages: 1 -->
<svg width="271pt" height="196pt"
 viewBox="0.00 0.00 270.50 196.00" xmlns="http://www.w3.org/2000/svg" xmlns:xlink="http://www.w3.org/1999/xlink">
<g id="graph0" class="graph" transform="scale(1 1) rotate(0) translate(4 192)">
<title>debug.h</title>
<polygon fill="white" stroke="none" points="-4,4 -4,-192 266.5,-192 266.5,4 -4,4"/>
<!-- Node1 -->
<g id="node1" class="node"><title>Node1</title>
<polygon fill="#bfbfbf" stroke="black" points="99.5,-168.5 99.5,-187.5 150.5,-187.5 150.5,-168.5 99.5,-168.5"/>
<text text-anchor="middle" x="125" y="-175.5" font-family="Helvetica,sans-Serif" font-size="10.00">debug.h</text>
</g>
<!-- Node2 -->
<g id="node2" class="node"><title>Node2</title>
<g id="a_node2"><a xlink:href="msg__table_8h.html" target="_top" xlink:title="Function prototypes for msg_table.c. ">
<polygon fill="white" stroke="black" points="0,-112.5 0,-131.5 70,-131.5 70,-112.5 0,-112.5"/>
<text text-anchor="middle" x="35" y="-119.5" font-family="Helvetica,sans-Serif" font-size="10.00">msg_table.h</text>
</a>
</g>
</g>
<!-- Node1&#45;&gt;Node2 -->
<g id="edge1" class="edge"><title>Node1&#45;&gt;Node2</title>
<path fill="none" stroke="midnightblue" d="M101.962,-163.177C85.4011,-153.241 63.582,-140.149 49.4242,-131.655"/>
<polygon fill="midnightblue" stroke="midnightblue" points="100.164,-166.18 110.54,-168.324 103.766,-160.178 100.164,-166.18"/>
</g>
<!-- Node3 -->
<g id="node3" class="node"><title>Node3</title>
<g id="a_node3"><a xlink:href="msgserv__utils_8h.html" target="_top" xlink:title="Function prototypes fot msgserv_utils.c. ">
<polygon fill="white" stroke="black" points="55,-56.5 55,-75.5 141,-75.5 141,-56.5 55,-56.5"/>
<text text-anchor="middle" x="98" y="-63.5" font-family="Helvetica,sans-Serif" font-size="10.00">msgserv_utils.h</text>
</a>
</g>
</g>
<!-- Node1&#45;&gt;Node3 -->
<g id="edge6" class="edge"><title>Node1&#45;&gt;Node3</title>
<path fill="none" stroke="midnightblue" d="M120.422,-158.348C114.508,-134.254 104.457,-93.3079 100.109,-75.5914"/>
<polygon fill="midnightblue" stroke="midnightblue" points="117.098,-159.491 122.881,-168.368 123.897,-157.822 117.098,-159.491"/>
</g>
<!-- Node5 -->
<g id="node5" class="node"><title>Node5</title>
<g id="a_node5"><a xlink:href="sv__list_8h.html" target="_top" xlink:title="Function prototypes for sv_list.c. ">
<polygon fill="white" stroke="black" points="126.5,-112.5 126.5,-131.5 179.5,-131.5 179.5,-112.5 126.5,-112.5"/>
<text text-anchor="middle" x="153" y="-119.5" font-family="Helvetica,sans-Serif" font-size="10.00">sv_list.h</text>
</a>
</g>
</g>
<!-- Node1&#45;&gt;Node5 -->
<g id="edge4" class="edge"><title>Node1&#45;&gt;Node5</title>
<path fill="none" stroke="midnightblue" d="M134.342,-158.983C139.095,-149.817 144.656,-139.092 148.462,-131.751"/>
<polygon fill="midnightblue" stroke="midnightblue" points="131.12,-157.594 129.624,-168.083 137.334,-160.817 131.12,-157.594"/>
</g>
<!-- Node6 -->
<g id="node6" class="node"><title>Node6</title>
<g id="a_node6"><a xlink:href="rmb__utils_8h.html" target="_top" xlink:title="Function prototypes for rmb_utils.c. ">
<polygon fill="white" stroke="black" points="197.5,-112.5 197.5,-131.5 262.5,-131.5 262.5,-112.5 197.5,-112.5"/>
<text text-anchor="middle" x="230" y="-119.5" font-family="Helvetica,sans-Serif" font-size="10.00">rmb_utils.h</text>
</a>
</g>
</g>
<!-- Node1&#45;&gt;Node6 -->
<g id="edge7" class="edge"><title>Node1&#45;&gt;Node6</title>
<path fill="none" stroke="midnightblue" d="M150.81,-163.726C170.253,-153.727 196.348,-140.307 213.172,-131.655"/>
<polygon fill="midnightblue" stroke="midnightblue" points="149.162,-160.638 141.87,-168.324 152.364,-166.863 149.162,-160.638"/>
</g>
<!-- Node2&#45;&gt;Node3 -->
<g id="edge2" class="edge"><title>Node2&#45;&gt;Node3</title>
<path fill="none" stroke="midnightblue" d="M53.0399,-105.537C64.2731,-95.9087 78.3191,-83.8694 87.6938,-75.8339"/>
<polygon fill="midnightblue" stroke="midnightblue" points="50.4368,-103.159 45.122,-112.324 54.9924,-108.473 50.4368,-103.159"/>
</g>
<!-- Node4 -->
<g id="node4" class="node"><title>Node4</title>
<g id="a_node4"><a xlink:href="msgserv_8h.html" target="_top" xlink:title="Function prototypes fot msgserv.c. ">
<polygon fill="white" stroke="black" points="67,-0.5 67,-19.5 129,-19.5 129,-0.5 67,-0.5"/>
<text text-anchor="middle" x="98" y="-7.5" font-family="Helvetica,sans-Serif" font-size="10.00">msgserv.h</text>
</a>
</g>
</g>
<!-- Node3&#45;&gt;Node4 -->
<g id="edge3" class="edge"><title>Node3&#45;&gt;Node4</title>
<path fill="none" stroke="midnightblue" d="M98,-45.8045C98,-36.9102 98,-26.7798 98,-19.7511"/>
<polygon fill="midnightblue" stroke="midnightblue" points="94.5001,-46.083 98,-56.083 101.5,-46.083 94.5001,-46.083"/>
</g>
<!-- Node5&#45;&gt;Node3 -->
<g id="edge5" class="edge"><title>Node5&#45;&gt;Node3</title>
<path fill="none" stroke="midnightblue" d="M136.706,-105.002C126.959,-95.4329 114.947,-83.6389 106.913,-75.7511"/>
<polygon fill="midnightblue" stroke="midnightblue" points="134.33,-107.575 143.918,-112.083 139.234,-102.58 134.33,-107.575"/>
</g>
</g>
</svg>
