<?xml version="1.0" encoding="UTF-8" standalone="no"?>
<!DOCTYPE svg PUBLIC "-//W3C//DTD SVG 1.1//EN"
 "http://www.w3.org/Graphics/SVG/1.1/DTD/svg11.dtd">
<!-- Generated by graphviz version 2.38.0 (20140413.2041)
 -->
<!-- Title: debug.h Pages: 1 -->
<svg width="271pt" height="252pt"
 viewBox="0.00 0.00 270.50 252.00" xmlns="http://www.w3.org/2000/svg" xmlns:xlink="http://www.w3.org/1999/xlink">
<g id="graph0" class="graph" transform="scale(1 1) rotate(0) translate(4 248)">
<title>debug.h</title>
<polygon fill="white" stroke="none" points="-4,4 -4,-248 266.5,-248 266.5,4 -4,4"/>
<!-- Node1 -->
<g id="node1" class="node"><title>Node1</title>
<polygon fill="#bfbfbf" stroke="black" points="99.5,-224.5 99.5,-243.5 150.5,-243.5 150.5,-224.5 99.5,-224.5"/>
<text text-anchor="middle" x="125" y="-231.5" font-family="Helvetica,sans-Serif" font-size="10.00">debug.h</text>
</g>
<!-- Node2 -->
<g id="node2" class="node"><title>Node2</title>
<g id="a_node2"><a xlink:href="msg__table_8h.html" target="_top" xlink:title="Function prototypes for msg_table.c. ">
<polygon fill="white" stroke="black" points="0,-168.5 0,-187.5 70,-187.5 70,-168.5 0,-168.5"/>
<text text-anchor="middle" x="35" y="-175.5" font-family="Helvetica,sans-Serif" font-size="10.00">msg_table.h</text>
</a>
</g>
</g>
<!-- Node1&#45;&gt;Node2 -->
<g id="edge1" class="edge"><title>Node1&#45;&gt;Node2</title>
<path fill="none" stroke="midnightblue" d="M101.962,-219.177C85.4011,-209.241 63.582,-196.149 49.4242,-187.655"/>
<polygon fill="midnightblue" stroke="midnightblue" points="100.164,-222.18 110.54,-224.324 103.766,-216.178 100.164,-222.18"/>
</g>
<!-- Node3 -->
<g id="node3" class="node"><title>Node3</title>
<g id="a_node3"><a xlink:href="msgserv__utils_8h.html" target="_top" xlink:title="Function prototypes for the functions used in msgserv as subroutines. ">
<polygon fill="white" stroke="black" points="55,-112.5 55,-131.5 141,-131.5 141,-112.5 55,-112.5"/>
<text text-anchor="middle" x="98" y="-119.5" font-family="Helvetica,sans-Serif" font-size="10.00">msgserv_utils.h</text>
</a>
</g>
</g>
<!-- Node1&#45;&gt;Node3 -->
<g id="edge7" class="edge"><title>Node1&#45;&gt;Node3</title>
<path fill="none" stroke="midnightblue" d="M120.422,-214.348C114.508,-190.254 104.457,-149.308 100.109,-131.591"/>
<polygon fill="midnightblue" stroke="midnightblue" points="117.098,-215.491 122.881,-224.368 123.897,-213.822 117.098,-215.491"/>
</g>
<!-- Node6 -->
<g id="node6" class="node"><title>Node6</title>
<g id="a_node6"><a xlink:href="sv__list_8h.html" target="_top" xlink:title="Function prototypes for sv_list.c. ">
<polygon fill="white" stroke="black" points="126.5,-168.5 126.5,-187.5 179.5,-187.5 179.5,-168.5 126.5,-168.5"/>
<text text-anchor="middle" x="153" y="-175.5" font-family="Helvetica,sans-Serif" font-size="10.00">sv_list.h</text>
</a>
</g>
</g>
<!-- Node1&#45;&gt;Node6 -->
<g id="edge5" class="edge"><title>Node1&#45;&gt;Node6</title>
<path fill="none" stroke="midnightblue" d="M134.342,-214.983C139.095,-205.817 144.656,-195.092 148.462,-187.751"/>
<polygon fill="midnightblue" stroke="midnightblue" points="131.12,-213.594 129.624,-224.083 137.334,-216.817 131.12,-213.594"/>
</g>
<!-- Node7 -->
<g id="node7" class="node"><title>Node7</title>
<g id="a_node7"><a xlink:href="rmb__utils_8h.html" target="_top" xlink:title="Function prototypes for rmb_utils.c. ">
<polygon fill="white" stroke="black" points="197.5,-168.5 197.5,-187.5 262.5,-187.5 262.5,-168.5 197.5,-168.5"/>
<text text-anchor="middle" x="230" y="-175.5" font-family="Helvetica,sans-Serif" font-size="10.00">rmb_utils.h</text>
</a>
</g>
</g>
<!-- Node1&#45;&gt;Node7 -->
<g id="edge8" class="edge"><title>Node1&#45;&gt;Node7</title>
<path fill="none" stroke="midnightblue" d="M150.81,-219.726C170.253,-209.727 196.348,-196.307 213.172,-187.655"/>
<polygon fill="midnightblue" stroke="midnightblue" points="149.162,-216.638 141.87,-224.324 152.364,-222.863 149.162,-216.638"/>
</g>
<!-- Node2&#45;&gt;Node3 -->
<g id="edge2" class="edge"><title>Node2&#45;&gt;Node3</title>
<path fill="none" stroke="midnightblue" d="M53.0399,-161.537C64.2731,-151.909 78.3191,-139.869 87.6938,-131.834"/>
<polygon fill="midnightblue" stroke="midnightblue" points="50.4368,-159.159 45.122,-168.324 54.9924,-164.473 50.4368,-159.159"/>
</g>
<!-- Node4 -->
<g id="node4" class="node"><title>Node4</title>
<g id="a_node4"><a xlink:href="msgserv_8h.html" target="_top" xlink:title="Function prototypes the message server. ">
<polygon fill="white" stroke="black" points="67,-56.5 67,-75.5 129,-75.5 129,-56.5 67,-56.5"/>
<text text-anchor="middle" x="98" y="-63.5" font-family="Helvetica,sans-Serif" font-size="10.00">msgserv.h</text>
</a>
</g>
</g>
<!-- Node3&#45;&gt;Node4 -->
<g id="edge3" class="edge"><title>Node3&#45;&gt;Node4</title>
<path fill="none" stroke="midnightblue" d="M98,-101.805C98,-92.9102 98,-82.7798 98,-75.7511"/>
<polygon fill="midnightblue" stroke="midnightblue" points="94.5001,-102.083 98,-112.083 101.5,-102.083 94.5001,-102.083"/>
</g>
<!-- Node5 -->
<g id="node5" class="node"><title>Node5</title>
<g id="a_node5"><a xlink:href="msgserv_8c.html" target="_top" xlink:title="Message Server Application. ">
<polygon fill="white" stroke="black" points="67,-0.5 67,-19.5 129,-19.5 129,-0.5 67,-0.5"/>
<text text-anchor="middle" x="98" y="-7.5" font-family="Helvetica,sans-Serif" font-size="10.00">msgserv.c</text>
</a>
</g>
</g>
<!-- Node4&#45;&gt;Node5 -->
<g id="edge4" class="edge"><title>Node4&#45;&gt;Node5</title>
<path fill="none" stroke="midnightblue" d="M98,-45.8045C98,-36.9102 98,-26.7798 98,-19.7511"/>
<polygon fill="midnightblue" stroke="midnightblue" points="94.5001,-46.083 98,-56.083 101.5,-46.083 94.5001,-46.083"/>
</g>
<!-- Node6&#45;&gt;Node3 -->
<g id="edge6" class="edge"><title>Node6&#45;&gt;Node3</title>
<path fill="none" stroke="midnightblue" d="M136.706,-161.002C126.959,-151.433 114.947,-139.639 106.913,-131.751"/>
<polygon fill="midnightblue" stroke="midnightblue" points="134.33,-163.575 143.918,-168.083 139.234,-158.58 134.33,-163.575"/>
</g>
</g>
</svg>
