<?xml version="1.0" encoding="UTF-8" standalone="no"?>
<!DOCTYPE svg PUBLIC "-//W3C//DTD SVG 1.1//EN"
 "http://www.w3.org/Graphics/SVG/1.1/DTD/svg11.dtd">
<!-- Generated by graphviz version 2.38.0 (20140413.2041)
 -->
<!-- Title: defs.h Pages: 1 -->
<svg width="310pt" height="252pt"
 viewBox="0.00 0.00 309.50 252.00" xmlns="http://www.w3.org/2000/svg" xmlns:xlink="http://www.w3.org/1999/xlink">
<g id="graph0" class="graph" transform="scale(1 1) rotate(0) translate(4 248)">
<title>defs.h</title>
<polygon fill="white" stroke="none" points="-4,4 -4,-248 305.5,-248 305.5,4 -4,4"/>
<!-- Node1 -->
<g id="node1" class="node"><title>Node1</title>
<polygon fill="#bfbfbf" stroke="black" points="131,-224.5 131,-243.5 175,-243.5 175,-224.5 131,-224.5"/>
<text text-anchor="middle" x="153" y="-231.5" font-family="Helvetica,sans-Serif" font-size="10.00">defs.h</text>
</g>
<!-- Node2 -->
<g id="node2" class="node"><title>Node2</title>
<g id="a_node2"><a xlink:href="msg__table_8h.html" target="_top" xlink:title="Function prototypes for msg_table.c. ">
<polygon fill="white" stroke="black" points="0,-168.5 0,-187.5 70,-187.5 70,-168.5 0,-168.5"/>
<text text-anchor="middle" x="35" y="-175.5" font-family="Helvetica,sans-Serif" font-size="10.00">msg_table.h</text>
</a>
</g>
</g>
<!-- Node1&#45;&gt;Node2 -->
<g id="edge1" class="edge"><title>Node1&#45;&gt;Node2</title>
<path fill="none" stroke="midnightblue" d="M125.1,-220.232C103.027,-210.131 72.8237,-196.309 53.61,-187.516"/>
<polygon fill="midnightblue" stroke="midnightblue" points="123.753,-223.465 134.303,-224.444 126.666,-217.1 123.753,-223.465"/>
</g>
<!-- Node3 -->
<g id="node3" class="node"><title>Node3</title>
<g id="a_node3"><a xlink:href="msgserv__utils_8h.html" target="_top" xlink:title="Function prototypes for the functions used in msgserv as subroutines. ">
<polygon fill="white" stroke="black" points="74,-112.5 74,-131.5 160,-131.5 160,-112.5 74,-112.5"/>
<text text-anchor="middle" x="117" y="-119.5" font-family="Helvetica,sans-Serif" font-size="10.00">msgserv_utils.h</text>
</a>
</g>
</g>
<!-- Node1&#45;&gt;Node3 -->
<g id="edge7" class="edge"><title>Node1&#45;&gt;Node3</title>
<path fill="none" stroke="midnightblue" d="M135.6,-216.819C128.367,-208.916 120.785,-198.791 117,-188 110.276,-168.833 113.008,-144.484 115.222,-131.717"/>
<polygon fill="midnightblue" stroke="midnightblue" points="133.333,-219.506 142.838,-224.185 138.326,-214.6 133.333,-219.506"/>
</g>
<!-- Node4 -->
<g id="node4" class="node"><title>Node4</title>
<g id="a_node4"><a xlink:href="msgserv_8h.html" target="_top" xlink:title="Function prototypes the message server. ">
<polygon fill="white" stroke="black" points="141,-56.5 141,-75.5 203,-75.5 203,-56.5 141,-56.5"/>
<text text-anchor="middle" x="172" y="-63.5" font-family="Helvetica,sans-Serif" font-size="10.00">msgserv.h</text>
</a>
</g>
</g>
<!-- Node1&#45;&gt;Node4 -->
<g id="edge8" class="edge"><title>Node1&#45;&gt;Node4</title>
<path fill="none" stroke="midnightblue" d="M169.651,-217.043C176.767,-209.078 184.281,-198.839 188,-188 201.822,-147.714 184.076,-96.0966 175.812,-75.7769"/>
<polygon fill="midnightblue" stroke="midnightblue" points="166.946,-214.808 162.556,-224.45 172.001,-219.65 166.946,-214.808"/>
</g>
<!-- Node6 -->
<g id="node6" class="node"><title>Node6</title>
<g id="a_node6"><a xlink:href="sv__list_8h.html" target="_top" xlink:title="Function prototypes for sv_list.c. ">
<polygon fill="white" stroke="black" points="126.5,-168.5 126.5,-187.5 179.5,-187.5 179.5,-168.5 126.5,-168.5"/>
<text text-anchor="middle" x="153" y="-175.5" font-family="Helvetica,sans-Serif" font-size="10.00">sv_list.h</text>
</a>
</g>
</g>
<!-- Node1&#45;&gt;Node6 -->
<g id="edge5" class="edge"><title>Node1&#45;&gt;Node6</title>
<path fill="none" stroke="midnightblue" d="M153,-213.805C153,-204.91 153,-194.78 153,-187.751"/>
<polygon fill="midnightblue" stroke="midnightblue" points="149.5,-214.083 153,-224.083 156.5,-214.083 149.5,-214.083"/>
</g>
<!-- Node7 -->
<g id="node7" class="node"><title>Node7</title>
<g id="a_node7"><a xlink:href="rmb__utils_8h.html" target="_top" xlink:title="Function prototypes for rmb_utils.c. ">
<polygon fill="white" stroke="black" points="236.5,-168.5 236.5,-187.5 301.5,-187.5 301.5,-168.5 236.5,-168.5"/>
<text text-anchor="middle" x="269" y="-175.5" font-family="Helvetica,sans-Serif" font-size="10.00">rmb_utils.h</text>
</a>
</g>
</g>
<!-- Node1&#45;&gt;Node7 -->
<g id="edge9" class="edge"><title>Node1&#45;&gt;Node7</title>
<path fill="none" stroke="midnightblue" d="M180.72,-220.096C202.392,-210.007 231.902,-196.27 250.705,-187.516"/>
<polygon fill="midnightblue" stroke="midnightblue" points="178.969,-217.05 171.381,-224.444 181.923,-223.396 178.969,-217.05"/>
</g>
<!-- Node2&#45;&gt;Node3 -->
<g id="edge2" class="edge"><title>Node2&#45;&gt;Node3</title>
<path fill="none" stroke="midnightblue" d="M56.8331,-162.622C71.8129,-152.757 91.1975,-139.992 103.858,-131.655"/>
<polygon fill="midnightblue" stroke="midnightblue" points="54.6015,-159.901 48.1747,-168.324 58.4514,-165.747 54.6015,-159.901"/>
</g>
<!-- Node3&#45;&gt;Node4 -->
<g id="edge3" class="edge"><title>Node3&#45;&gt;Node4</title>
<path fill="none" stroke="midnightblue" d="M133.294,-105.002C143.041,-95.4329 155.053,-83.6389 163.087,-75.7511"/>
<polygon fill="midnightblue" stroke="midnightblue" points="130.766,-102.58 126.082,-112.083 135.67,-107.575 130.766,-102.58"/>
</g>
<!-- Node5 -->
<g id="node5" class="node"><title>Node5</title>
<g id="a_node5"><a xlink:href="msgserv_8c.html" target="_top" xlink:title="Message Server Application. ">
<polygon fill="white" stroke="black" points="141,-0.5 141,-19.5 203,-19.5 203,-0.5 141,-0.5"/>
<text text-anchor="middle" x="172" y="-7.5" font-family="Helvetica,sans-Serif" font-size="10.00">msgserv.c</text>
</a>
</g>
</g>
<!-- Node4&#45;&gt;Node5 -->
<g id="edge4" class="edge"><title>Node4&#45;&gt;Node5</title>
<path fill="none" stroke="midnightblue" d="M172,-45.8045C172,-36.9102 172,-26.7798 172,-19.7511"/>
<polygon fill="midnightblue" stroke="midnightblue" points="168.5,-46.083 172,-56.083 175.5,-46.083 168.5,-46.083"/>
</g>
<!-- Node6&#45;&gt;Node3 -->
<g id="edge6" class="edge"><title>Node6&#45;&gt;Node3</title>
<path fill="none" stroke="midnightblue" d="M141.377,-159.566C135.183,-150.275 127.832,-139.248 122.834,-131.751"/>
<polygon fill="midnightblue" stroke="midnightblue" points="138.596,-161.704 147.055,-168.083 144.42,-157.821 138.596,-161.704"/>
</g>
</g>
</svg>
