<?xml version="1.0" encoding="UTF-8" standalone="no"?>
<!DOCTYPE svg PUBLIC "-//W3C//DTD SVG 1.1//EN"
 "http://www.w3.org/Graphics/SVG/1.1/DTD/svg11.dtd">
<!-- Generated by graphviz version 2.38.0 (20140413.2041)
 -->
<!-- Title: defs.h Pages: 1 -->
<svg width="310pt" height="196pt"
 viewBox="0.00 0.00 309.50 196.00" xmlns="http://www.w3.org/2000/svg" xmlns:xlink="http://www.w3.org/1999/xlink">
<g id="graph0" class="graph" transform="scale(1 1) rotate(0) translate(4 192)">
<title>defs.h</title>
<polygon fill="white" stroke="none" points="-4,4 -4,-192 305.5,-192 305.5,4 -4,4"/>
<!-- Node1 -->
<g id="node1" class="node"><title>Node1</title>
<polygon fill="#bfbfbf" stroke="black" points="131,-168.5 131,-187.5 175,-187.5 175,-168.5 131,-168.5"/>
<text text-anchor="middle" x="153" y="-175.5" font-family="Helvetica,sans-Serif" font-size="10.00">defs.h</text>
</g>
<!-- Node2 -->
<g id="node2" class="node"><title>Node2</title>
<g id="a_node2"><a xlink:href="msg__table_8h.html" target="_top" xlink:title="Function prototypes for msg_table.c. ">
<polygon fill="white" stroke="black" points="0,-112.5 0,-131.5 70,-131.5 70,-112.5 0,-112.5"/>
<text text-anchor="middle" x="35" y="-119.5" font-family="Helvetica,sans-Serif" font-size="10.00">msg_table.h</text>
</a>
</g>
</g>
<!-- Node1&#45;&gt;Node2 -->
<g id="edge1" class="edge"><title>Node1&#45;&gt;Node2</title>
<path fill="none" stroke="midnightblue" d="M125.1,-164.232C103.027,-154.131 72.8237,-140.309 53.61,-131.516"/>
<polygon fill="midnightblue" stroke="midnightblue" points="123.753,-167.465 134.303,-168.444 126.666,-161.1 123.753,-167.465"/>
</g>
<!-- Node3 -->
<g id="node3" class="node"><title>Node3</title>
<g id="a_node3"><a xlink:href="msgserv__utils_8h.html" target="_top" xlink:title="Function prototypes fot msgserv_utils.c. ">
<polygon fill="white" stroke="black" points="74,-56.5 74,-75.5 160,-75.5 160,-56.5 74,-56.5"/>
<text text-anchor="middle" x="117" y="-63.5" font-family="Helvetica,sans-Serif" font-size="10.00">msgserv_utils.h</text>
</a>
</g>
</g>
<!-- Node1&#45;&gt;Node3 -->
<g id="edge6" class="edge"><title>Node1&#45;&gt;Node3</title>
<path fill="none" stroke="midnightblue" d="M135.6,-160.819C128.367,-152.916 120.785,-142.791 117,-132 110.276,-112.833 113.008,-88.4843 115.222,-75.7169"/>
<polygon fill="midnightblue" stroke="midnightblue" points="133.333,-163.506 142.838,-168.185 138.326,-158.6 133.333,-163.506"/>
</g>
<!-- Node4 -->
<g id="node4" class="node"><title>Node4</title>
<g id="a_node4"><a xlink:href="msgserv_8h.html" target="_top" xlink:title="Function prototypes fot msgserv.c. ">
<polygon fill="white" stroke="black" points="141,-0.5 141,-19.5 203,-19.5 203,-0.5 141,-0.5"/>
<text text-anchor="middle" x="172" y="-7.5" font-family="Helvetica,sans-Serif" font-size="10.00">msgserv.h</text>
</a>
</g>
</g>
<!-- Node1&#45;&gt;Node4 -->
<g id="edge7" class="edge"><title>Node1&#45;&gt;Node4</title>
<path fill="none" stroke="midnightblue" d="M169.651,-161.043C176.767,-153.078 184.281,-142.839 188,-132 201.822,-91.7138 184.076,-40.0966 175.812,-19.7769"/>
<polygon fill="midnightblue" stroke="midnightblue" points="166.946,-158.808 162.556,-168.45 172.001,-163.65 166.946,-158.808"/>
</g>
<!-- Node5 -->
<g id="node5" class="node"><title>Node5</title>
<g id="a_node5"><a xlink:href="sv__list_8h.html" target="_top" xlink:title="Function prototypes for sv_list.c. ">
<polygon fill="white" stroke="black" points="126.5,-112.5 126.5,-131.5 179.5,-131.5 179.5,-112.5 126.5,-112.5"/>
<text text-anchor="middle" x="153" y="-119.5" font-family="Helvetica,sans-Serif" font-size="10.00">sv_list.h</text>
</a>
</g>
</g>
<!-- Node1&#45;&gt;Node5 -->
<g id="edge4" class="edge"><title>Node1&#45;&gt;Node5</title>
<path fill="none" stroke="midnightblue" d="M153,-157.805C153,-148.91 153,-138.78 153,-131.751"/>
<polygon fill="midnightblue" stroke="midnightblue" points="149.5,-158.083 153,-168.083 156.5,-158.083 149.5,-158.083"/>
</g>
<!-- Node6 -->
<g id="node6" class="node"><title>Node6</title>
<g id="a_node6"><a xlink:href="rmb__utils_8h.html" target="_top" xlink:title="Function prototypes for rmb_utils.c. ">
<polygon fill="white" stroke="black" points="236.5,-112.5 236.5,-131.5 301.5,-131.5 301.5,-112.5 236.5,-112.5"/>
<text text-anchor="middle" x="269" y="-119.5" font-family="Helvetica,sans-Serif" font-size="10.00">rmb_utils.h</text>
</a>
</g>
</g>
<!-- Node1&#45;&gt;Node6 -->
<g id="edge8" class="edge"><title>Node1&#45;&gt;Node6</title>
<path fill="none" stroke="midnightblue" d="M180.72,-164.096C202.392,-154.007 231.902,-140.27 250.705,-131.516"/>
<polygon fill="midnightblue" stroke="midnightblue" points="178.969,-161.05 171.381,-168.444 181.923,-167.396 178.969,-161.05"/>
</g>
<!-- Node2&#45;&gt;Node3 -->
<g id="edge2" class="edge"><title>Node2&#45;&gt;Node3</title>
<path fill="none" stroke="midnightblue" d="M56.8331,-106.622C71.8129,-96.7574 91.1975,-83.9919 103.858,-75.6545"/>
<polygon fill="midnightblue" stroke="midnightblue" points="54.6015,-103.901 48.1747,-112.324 58.4514,-109.747 54.6015,-103.901"/>
</g>
<!-- Node3&#45;&gt;Node4 -->
<g id="edge3" class="edge"><title>Node3&#45;&gt;Node4</title>
<path fill="none" stroke="midnightblue" d="M133.294,-49.0024C143.041,-39.4329 155.053,-27.6389 163.087,-19.7511"/>
<polygon fill="midnightblue" stroke="midnightblue" points="130.766,-46.5796 126.082,-56.083 135.67,-51.5746 130.766,-46.5796"/>
</g>
<!-- Node5&#45;&gt;Node3 -->
<g id="edge5" class="edge"><title>Node5&#45;&gt;Node3</title>
<path fill="none" stroke="midnightblue" d="M141.377,-103.566C135.183,-94.2747 127.832,-83.2484 122.834,-75.7511"/>
<polygon fill="midnightblue" stroke="midnightblue" points="138.596,-105.704 147.055,-112.083 144.42,-101.821 138.596,-105.704"/>
</g>
</g>
</svg>
