<?xml version="1.0" encoding="UTF-8" standalone="no"?>
<!DOCTYPE svg PUBLIC "-//W3C//DTD SVG 1.1//EN"
 "http://www.w3.org/Graphics/SVG/1.1/DTD/svg11.dtd">
<!-- Generated by graphviz version 2.38.0 (20140413.2041)
 -->
<!-- Title: msg_table.h Pages: 1 -->
<svg width="384pt" height="84pt"
 viewBox="0.00 0.00 384.00 84.00" xmlns="http://www.w3.org/2000/svg" xmlns:xlink="http://www.w3.org/1999/xlink">
<g id="graph0" class="graph" transform="scale(1 1) rotate(0) translate(4 80)">
<title>msg_table.h</title>
<polygon fill="white" stroke="none" points="-4,4 -4,-80 380,-80 380,4 -4,4"/>
<!-- Node1 -->
<g id="node1" class="node"><title>Node1</title>
<polygon fill="#bfbfbf" stroke="black" points="153,-56.5 153,-75.5 223,-75.5 223,-56.5 153,-56.5"/>
<text text-anchor="middle" x="188" y="-63.5" font-family="Helvetica,sans-Serif" font-size="10.00">msg_table.h</text>
</g>
<!-- Node2 -->
<g id="node2" class="node"><title>Node2</title>
<polygon fill="white" stroke="#bfbfbf" points="0,-0.5 0,-19.5 46,-19.5 46,-0.5 0,-0.5"/>
<text text-anchor="middle" x="23" y="-7.5" font-family="Helvetica,sans-Serif" font-size="10.00">stdio.h</text>
</g>
<!-- Node1&#45;&gt;Node2 -->
<g id="edge1" class="edge"><title>Node1&#45;&gt;Node2</title>
<path fill="none" stroke="midnightblue" d="M161.855,-56.4435C133.075,-47.0244 86.7663,-31.869 55.6289,-21.6785"/>
<polygon fill="midnightblue" stroke="midnightblue" points="56.6865,-18.3421 46.0939,-18.558 54.5092,-24.9948 56.6865,-18.3421"/>
</g>
<!-- Node3 -->
<g id="node3" class="node"><title>Node3</title>
<polygon fill="white" stroke="#bfbfbf" points="64,-0.5 64,-19.5 112,-19.5 112,-0.5 64,-0.5"/>
<text text-anchor="middle" x="88" y="-7.5" font-family="Helvetica,sans-Serif" font-size="10.00">stdlib.h</text>
</g>
<!-- Node1&#45;&gt;Node3 -->
<g id="edge2" class="edge"><title>Node1&#45;&gt;Node3</title>
<path fill="none" stroke="midnightblue" d="M171.933,-56.324C156.042,-47.7428 131.493,-34.486 113.042,-24.5224"/>
<polygon fill="midnightblue" stroke="midnightblue" points="114.489,-21.3264 104.027,-19.6545 111.163,-27.4857 114.489,-21.3264"/>
</g>
<!-- Node4 -->
<g id="node4" class="node"><title>Node4</title>
<polygon fill="white" stroke="#bfbfbf" points="130.5,-0.5 130.5,-19.5 179.5,-19.5 179.5,-0.5 130.5,-0.5"/>
<text text-anchor="middle" x="155" y="-7.5" font-family="Helvetica,sans-Serif" font-size="10.00">string.h</text>
</g>
<!-- Node1&#45;&gt;Node4 -->
<g id="edge3" class="edge"><title>Node1&#45;&gt;Node4</title>
<path fill="none" stroke="midnightblue" d="M182.551,-56.083C177.986,-48.6127 171.332,-37.7244 165.707,-28.5199"/>
<polygon fill="midnightblue" stroke="midnightblue" points="168.549,-26.4588 160.348,-19.7511 162.576,-30.109 168.549,-26.4588"/>
</g>
<!-- Node5 -->
<g id="node5" class="node"><title>Node5</title>
<polygon fill="white" stroke="#bfbfbf" points="197.5,-0.5 197.5,-19.5 244.5,-19.5 244.5,-0.5 197.5,-0.5"/>
<text text-anchor="middle" x="221" y="-7.5" font-family="Helvetica,sans-Serif" font-size="10.00">math.h</text>
</g>
<!-- Node1&#45;&gt;Node5 -->
<g id="edge4" class="edge"><title>Node1&#45;&gt;Node5</title>
<path fill="none" stroke="midnightblue" d="M193.449,-56.083C198.014,-48.6127 204.668,-37.7244 210.293,-28.5199"/>
<polygon fill="midnightblue" stroke="midnightblue" points="213.424,-30.109 215.652,-19.7511 207.451,-26.4588 213.424,-30.109"/>
</g>
<!-- Node6 -->
<g id="node6" class="node"><title>Node6</title>
<g id="a_node6"><a xlink:href="debug_8h.html" target="_top" xlink:title="Macros for debug and verbose options. ">
<polygon fill="white" stroke="black" points="262.5,-0.5 262.5,-19.5 313.5,-19.5 313.5,-0.5 262.5,-0.5"/>
<text text-anchor="middle" x="288" y="-7.5" font-family="Helvetica,sans-Serif" font-size="10.00">debug.h</text>
</a>
</g>
</g>
<!-- Node1&#45;&gt;Node6 -->
<g id="edge5" class="edge"><title>Node1&#45;&gt;Node6</title>
<path fill="none" stroke="midnightblue" d="M204.067,-56.324C219.958,-47.7428 244.507,-34.486 262.958,-24.5224"/>
<polygon fill="midnightblue" stroke="midnightblue" points="264.837,-27.4857 271.973,-19.6545 261.511,-21.3264 264.837,-27.4857"/>
</g>
<!-- Node7 -->
<g id="node7" class="node"><title>Node7</title>
<g id="a_node7"><a xlink:href="defs_8h.html" target="_top" xlink:title="Useful definitions. ">
<polygon fill="white" stroke="black" points="332,-0.5 332,-19.5 376,-19.5 376,-0.5 332,-0.5"/>
<text text-anchor="middle" x="354" y="-7.5" font-family="Helvetica,sans-Serif" font-size="10.00">defs.h</text>
</a>
</g>
</g>
<!-- Node1&#45;&gt;Node7 -->
<g id="edge6" class="edge"><title>Node1&#45;&gt;Node7</title>
<path fill="none" stroke="midnightblue" d="M214.303,-56.4435C243.588,-46.9171 290.911,-31.5228 322.238,-21.3321"/>
<polygon fill="midnightblue" stroke="midnightblue" points="323.377,-24.6422 331.804,-18.2203 321.212,-17.9855 323.377,-24.6422"/>
</g>
</g>
</svg>
