<?xml version="1.0" encoding="UTF-8" standalone="no"?>
<!DOCTYPE svg PUBLIC "-//W3C//DTD SVG 1.1//EN"
 "http://www.w3.org/Graphics/SVG/1.1/DTD/svg11.dtd">
<!-- Generated by graphviz version 2.38.0 (20140413.2041)
 -->
<!-- Title: msgserv.c Pages: 1 -->
<svg width="917pt" height="252pt"
 viewBox="0.00 0.00 916.50 252.00" xmlns="http://www.w3.org/2000/svg" xmlns:xlink="http://www.w3.org/1999/xlink">
<g id="graph0" class="graph" transform="scale(1 1) rotate(0) translate(4 248)">
<title>msgserv.c</title>
<polygon fill="white" stroke="none" points="-4,4 -4,-248 912.5,-248 912.5,4 -4,4"/>
<!-- Node1 -->
<g id="node1" class="node"><title>Node1</title>
<polygon fill="#bfbfbf" stroke="black" points="676.5,-224.5 676.5,-243.5 738.5,-243.5 738.5,-224.5 676.5,-224.5"/>
<text text-anchor="middle" x="707.5" y="-231.5" font-family="Helvetica,sans-Serif" font-size="10.00">msgserv.c</text>
</g>
<!-- Node2 -->
<g id="node2" class="node"><title>Node2</title>
<g id="a_node2"><a xlink:href="msgserv_8h.html" target="_top" xlink:title="Function prototypes the message server. ">
<polygon fill="white" stroke="black" points="676.5,-168.5 676.5,-187.5 738.5,-187.5 738.5,-168.5 676.5,-168.5"/>
<text text-anchor="middle" x="707.5" y="-175.5" font-family="Helvetica,sans-Serif" font-size="10.00">msgserv.h</text>
</a>
</g>
</g>
<!-- Node1&#45;&gt;Node2 -->
<g id="edge1" class="edge"><title>Node1&#45;&gt;Node2</title>
<path fill="none" stroke="midnightblue" d="M707.5,-224.083C707.5,-217.006 707.5,-206.861 707.5,-197.986"/>
<polygon fill="midnightblue" stroke="midnightblue" points="711,-197.751 707.5,-187.751 704,-197.751 711,-197.751"/>
</g>
<!-- Node3 -->
<g id="node3" class="node"><title>Node3</title>
<g id="a_node3"><a xlink:href="msgserv__utils_8h.html" target="_top" xlink:title="Function prototypes for the functions used in msgserv as subroutines. ">
<polygon fill="white" stroke="black" points="488.5,-112.5 488.5,-131.5 574.5,-131.5 574.5,-112.5 488.5,-112.5"/>
<text text-anchor="middle" x="531.5" y="-119.5" font-family="Helvetica,sans-Serif" font-size="10.00">msgserv_utils.h</text>
</a>
</g>
</g>
<!-- Node2&#45;&gt;Node3 -->
<g id="edge2" class="edge"><title>Node2&#45;&gt;Node3</title>
<path fill="none" stroke="midnightblue" d="M679.612,-168.444C649.746,-159.28 602.185,-144.688 569.044,-134.519"/>
<polygon fill="midnightblue" stroke="midnightblue" points="569.844,-131.104 559.257,-131.516 567.791,-137.796 569.844,-131.104"/>
</g>
<!-- Node17 -->
<g id="node17" class="node"><title>Node17</title>
<g id="a_node17"><a xlink:href="defs_8h.html" target="_top" xlink:title="Useful definitions. ">
<polygon fill="white" stroke="black" points="864.5,-0.5 864.5,-19.5 908.5,-19.5 908.5,-0.5 864.5,-0.5"/>
<text text-anchor="middle" x="886.5" y="-7.5" font-family="Helvetica,sans-Serif" font-size="10.00">defs.h</text>
</a>
</g>
</g>
<!-- Node2&#45;&gt;Node17 -->
<g id="edge36" class="edge"><title>Node2&#45;&gt;Node17</title>
<path fill="none" stroke="midnightblue" d="M716.835,-168.357C735.679,-150.906 779.617,-110.212 816.5,-76 834.592,-59.2182 855.301,-39.9854 869.473,-26.8204"/>
<polygon fill="midnightblue" stroke="midnightblue" points="872.048,-29.2051 876.992,-19.8345 867.284,-24.0767 872.048,-29.2051"/>
</g>
<!-- Node4 -->
<g id="node4" class="node"><title>Node4</title>
<polygon fill="white" stroke="#bfbfbf" points="800.5,-0.5 800.5,-19.5 846.5,-19.5 846.5,-0.5 800.5,-0.5"/>
<text text-anchor="middle" x="823.5" y="-7.5" font-family="Helvetica,sans-Serif" font-size="10.00">stdio.h</text>
</g>
<!-- Node3&#45;&gt;Node4 -->
<g id="edge3" class="edge"><title>Node3&#45;&gt;Node4</title>
<path fill="none" stroke="midnightblue" d="M574.91,-119.272C621.629,-115.856 696.967,-105.758 754.5,-76 777.228,-64.2442 797.801,-42.7907 810.453,-27.7562"/>
<polygon fill="midnightblue" stroke="midnightblue" points="813.354,-29.736 816.943,-19.7676 807.921,-25.3221 813.354,-29.736"/>
</g>
<!-- Node5 -->
<g id="node5" class="node"><title>Node5</title>
<polygon fill="white" stroke="#bfbfbf" points="532.5,-0.5 532.5,-19.5 580.5,-19.5 580.5,-0.5 532.5,-0.5"/>
<text text-anchor="middle" x="556.5" y="-7.5" font-family="Helvetica,sans-Serif" font-size="10.00">stdlib.h</text>
</g>
<!-- Node3&#45;&gt;Node5 -->
<g id="edge4" class="edge"><title>Node3&#45;&gt;Node5</title>
<path fill="none" stroke="midnightblue" d="M534.53,-112.468C537.631,-103.487 542.419,-88.8914 545.5,-76 549.163,-60.6749 552.068,-43.0344 553.97,-30.0009"/>
<polygon fill="midnightblue" stroke="midnightblue" points="557.463,-30.2949 555.378,-19.9073 550.53,-29.3279 557.463,-30.2949"/>
</g>
<!-- Node6 -->
<g id="node6" class="node"><title>Node6</title>
<polygon fill="white" stroke="#bfbfbf" points="599,-0.5 599,-19.5 648,-19.5 648,-0.5 599,-0.5"/>
<text text-anchor="middle" x="623.5" y="-7.5" font-family="Helvetica,sans-Serif" font-size="10.00">string.h</text>
</g>
<!-- Node3&#45;&gt;Node6 -->
<g id="edge5" class="edge"><title>Node3&#45;&gt;Node6</title>
<path fill="none" stroke="midnightblue" d="M538.719,-112.368C554.036,-94.0547 590.005,-51.0489 609.815,-27.3624"/>
<polygon fill="midnightblue" stroke="midnightblue" points="612.584,-29.5077 616.314,-19.5914 607.214,-25.0168 612.584,-29.5077"/>
</g>
<!-- Node7 -->
<g id="node7" class="node"><title>Node7</title>
<polygon fill="white" stroke="#bfbfbf" points="0,-0.5 0,-19.5 51,-19.5 51,-0.5 0,-0.5"/>
<text text-anchor="middle" x="25.5" y="-7.5" font-family="Helvetica,sans-Serif" font-size="10.00">unistd.h</text>
</g>
<!-- Node3&#45;&gt;Node7 -->
<g id="edge6" class="edge"><title>Node3&#45;&gt;Node7</title>
<path fill="none" stroke="midnightblue" d="M488.289,-116.864C428.963,-110.675 319.206,-97.3892 227.5,-76 166.277,-61.7206 96.9189,-37.5963 57.4748,-23.0969"/>
<polygon fill="midnightblue" stroke="midnightblue" points="58.4723,-19.734 47.8792,-19.542 56.0405,-26.298 58.4723,-19.734"/>
</g>
<!-- Node8 -->
<g id="node8" class="node"><title>Node8</title>
<polygon fill="white" stroke="#bfbfbf" points="69.5,-0.5 69.5,-19.5 137.5,-19.5 137.5,-0.5 69.5,-0.5"/>
<text text-anchor="middle" x="103.5" y="-7.5" font-family="Helvetica,sans-Serif" font-size="10.00">sys/types.h</text>
</g>
<!-- Node3&#45;&gt;Node8 -->
<g id="edge7" class="edge"><title>Node3&#45;&gt;Node8</title>
<path fill="none" stroke="midnightblue" d="M488.279,-114.664C440.459,-107.221 361.319,-93.6202 294.5,-76 237.137,-60.8734 172.075,-37.3118 134.609,-23.0969"/>
<polygon fill="midnightblue" stroke="midnightblue" points="135.842,-19.8212 125.251,-19.5227 133.344,-26.3605 135.842,-19.8212"/>
</g>
<!-- Node9 -->
<g id="node9" class="node"><title>Node9</title>
<polygon fill="white" stroke="#bfbfbf" points="156,-0.5 156,-19.5 229,-19.5 229,-0.5 156,-0.5"/>
<text text-anchor="middle" x="192.5" y="-7.5" font-family="Helvetica,sans-Serif" font-size="10.00">sys/socket.h</text>
</g>
<!-- Node3&#45;&gt;Node9 -->
<g id="edge8" class="edge"><title>Node3&#45;&gt;Node9</title>
<path fill="none" stroke="midnightblue" d="M489.674,-112.429C452.669,-104.414 397.42,-91.3918 350.5,-76 303.961,-60.7331 251.722,-38.1171 220.499,-23.9848"/>
<polygon fill="midnightblue" stroke="midnightblue" points="221.685,-20.679 211.134,-19.7146 218.781,-27.0481 221.685,-20.679"/>
</g>
<!-- Node10 -->
<g id="node10" class="node"><title>Node10</title>
<polygon fill="white" stroke="#bfbfbf" points="247.5,-0.5 247.5,-19.5 295.5,-19.5 295.5,-0.5 247.5,-0.5"/>
<text text-anchor="middle" x="271.5" y="-7.5" font-family="Helvetica,sans-Serif" font-size="10.00">limits.h</text>
</g>
<!-- Node3&#45;&gt;Node10 -->
<g id="edge9" class="edge"><title>Node3&#45;&gt;Node10</title>
<path fill="none" stroke="midnightblue" d="M500.998,-112.464C473.085,-104.289 430.873,-91.0048 395.5,-76 359.35,-60.6658 319.443,-38.7991 294.918,-24.7518"/>
<polygon fill="midnightblue" stroke="midnightblue" points="296.419,-21.5769 286.009,-19.6047 292.917,-27.638 296.419,-21.5769"/>
</g>
<!-- Node11 -->
<g id="node11" class="node"><title>Node11</title>
<polygon fill="white" stroke="#bfbfbf" points="314,-0.5 314,-19.5 379,-19.5 379,-0.5 314,-0.5"/>
<text text-anchor="middle" x="346.5" y="-7.5" font-family="Helvetica,sans-Serif" font-size="10.00">netinet/in.h</text>
</g>
<!-- Node3&#45;&gt;Node11 -->
<g id="edge10" class="edge"><title>Node3&#45;&gt;Node11</title>
<path fill="none" stroke="midnightblue" d="M506.367,-112.474C484.479,-104.533 452.3,-91.5921 426.5,-76 402.981,-61.7863 378.892,-41.2363 363.379,-27.0662"/>
<polygon fill="midnightblue" stroke="midnightblue" points="365.41,-24.1748 355.702,-19.931 360.644,-29.3024 365.41,-24.1748"/>
</g>
<!-- Node12 -->
<g id="node12" class="node"><title>Node12</title>
<polygon fill="white" stroke="#bfbfbf" points="397,-0.5 397,-19.5 446,-19.5 446,-0.5 397,-0.5"/>
<text text-anchor="middle" x="421.5" y="-7.5" font-family="Helvetica,sans-Serif" font-size="10.00">netdb.h</text>
</g>
<!-- Node3&#45;&gt;Node12 -->
<g id="edge11" class="edge"><title>Node3&#45;&gt;Node12</title>
<path fill="none" stroke="midnightblue" d="M499.538,-112.409C479.899,-105.575 455.678,-94.0942 440.5,-76 429.53,-62.9221 424.892,-43.7712 422.932,-29.6422"/>
<polygon fill="midnightblue" stroke="midnightblue" points="426.402,-29.1736 421.864,-19.5996 419.441,-29.9135 426.402,-29.1736"/>
</g>
<!-- Node13 -->
<g id="node13" class="node"><title>Node13</title>
<polygon fill="white" stroke="#bfbfbf" points="464.5,-0.5 464.5,-19.5 514.5,-19.5 514.5,-0.5 464.5,-0.5"/>
<text text-anchor="middle" x="489.5" y="-7.5" font-family="Helvetica,sans-Serif" font-size="10.00">signal.h</text>
</g>
<!-- Node3&#45;&gt;Node13 -->
<g id="edge12" class="edge"><title>Node3&#45;&gt;Node13</title>
<path fill="none" stroke="midnightblue" d="M529.325,-112.441C526.028,-99.8692 519.316,-75.7629 511.5,-56 507.862,-46.8014 503.114,-36.8927 498.96,-28.7212"/>
<polygon fill="midnightblue" stroke="midnightblue" points="502.026,-27.0319 494.302,-19.7797 495.818,-30.2656 502.026,-27.0319"/>
</g>
<!-- Node14 -->
<g id="node14" class="node"><title>Node14</title>
<g id="a_node14"><a xlink:href="msg__table_8h.html" target="_top" xlink:title="Function prototypes for msg_table.c. ">
<polygon fill="white" stroke="black" points="654.5,-56.5 654.5,-75.5 724.5,-75.5 724.5,-56.5 654.5,-56.5"/>
<text text-anchor="middle" x="689.5" y="-63.5" font-family="Helvetica,sans-Serif" font-size="10.00">msg_table.h</text>
</a>
</g>
</g>
<!-- Node3&#45;&gt;Node14 -->
<g id="edge13" class="edge"><title>Node3&#45;&gt;Node14</title>
<path fill="none" stroke="midnightblue" d="M556.536,-112.444C583.116,-103.359 625.309,-88.9388 655.023,-78.7831"/>
<polygon fill="midnightblue" stroke="midnightblue" points="656.251,-82.0625 664.582,-75.5164 653.987,-75.4386 656.251,-82.0625"/>
</g>
<!-- Node16 -->
<g id="node16" class="node"><title>Node16</title>
<g id="a_node16"><a xlink:href="debug_8h.html" target="_top" xlink:title="Macros for debug and verbose options. ">
<polygon fill="white" stroke="black" points="731,-0.5 731,-19.5 782,-19.5 782,-0.5 731,-0.5"/>
<text text-anchor="middle" x="756.5" y="-7.5" font-family="Helvetica,sans-Serif" font-size="10.00">debug.h</text>
</a>
</g>
</g>
<!-- Node3&#45;&gt;Node16 -->
<g id="edge34" class="edge"><title>Node3&#45;&gt;Node16</title>
<path fill="none" stroke="midnightblue" d="M574.549,-116.319C626.651,-109.837 710.304,-96.5486 733.5,-76 746.781,-64.2352 752.393,-44.3044 754.764,-29.6073"/>
<polygon fill="midnightblue" stroke="midnightblue" points="758.247,-29.9686 756.02,-19.6104 751.301,-29.0965 758.247,-29.9686"/>
</g>
<!-- Node3&#45;&gt;Node17 -->
<g id="edge35" class="edge"><title>Node3&#45;&gt;Node17</title>
<path fill="none" stroke="midnightblue" d="M574.576,-118.267C625.664,-113.906 712.691,-102.916 782.5,-76 814.688,-63.5894 847.791,-40.8513 867.758,-25.8297"/>
<polygon fill="midnightblue" stroke="midnightblue" points="869.91,-28.5902 875.713,-19.7263 865.649,-23.0364 869.91,-28.5902"/>
</g>
<!-- Node18 -->
<g id="node18" class="node"><title>Node18</title>
<g id="a_node18"><a xlink:href="sv__list_8h.html" target="_top" xlink:title="Function prototypes for sv_list.c. ">
<polygon fill="white" stroke="black" points="450,-56.5 450,-75.5 503,-75.5 503,-56.5 450,-56.5"/>
<text text-anchor="middle" x="476.5" y="-63.5" font-family="Helvetica,sans-Serif" font-size="10.00">sv_list.h</text>
</a>
</g>
</g>
<!-- Node3&#45;&gt;Node18 -->
<g id="edge20" class="edge"><title>Node3&#45;&gt;Node18</title>
<path fill="none" stroke="midnightblue" d="M522.418,-112.083C514.329,-104.141 502.305,-92.3354 492.59,-82.7973"/>
<polygon fill="midnightblue" stroke="midnightblue" points="495.001,-80.2595 485.413,-75.7511 490.097,-85.2545 495.001,-80.2595"/>
</g>
<!-- Node14&#45;&gt;Node4 -->
<g id="edge14" class="edge"><title>Node14&#45;&gt;Node4</title>
<path fill="none" stroke="midnightblue" d="M710.733,-56.4435C732.884,-47.5171 767.819,-33.4387 792.936,-23.3168"/>
<polygon fill="midnightblue" stroke="midnightblue" points="794.4,-26.5006 802.367,-19.5164 791.783,-20.0079 794.4,-26.5006"/>
</g>
<!-- Node14&#45;&gt;Node5 -->
<g id="edge15" class="edge"><title>Node14&#45;&gt;Node5</title>
<path fill="none" stroke="midnightblue" d="M668.426,-56.4435C646.44,-47.5171 611.766,-33.4387 586.836,-23.3168"/>
<polygon fill="midnightblue" stroke="midnightblue" points="588.058,-20.0355 577.476,-19.5164 585.424,-26.5213 588.058,-20.0355"/>
</g>
<!-- Node14&#45;&gt;Node6 -->
<g id="edge16" class="edge"><title>Node14&#45;&gt;Node6</title>
<path fill="none" stroke="midnightblue" d="M678.896,-56.324C669.044,-48.2631 654.149,-36.0765 642.285,-26.3695"/>
<polygon fill="midnightblue" stroke="midnightblue" points="644.253,-23.4575 634.297,-19.8339 639.82,-28.8752 644.253,-23.4575"/>
</g>
<!-- Node15 -->
<g id="node15" class="node"><title>Node15</title>
<polygon fill="white" stroke="#bfbfbf" points="666,-0.5 666,-19.5 713,-19.5 713,-0.5 666,-0.5"/>
<text text-anchor="middle" x="689.5" y="-7.5" font-family="Helvetica,sans-Serif" font-size="10.00">math.h</text>
</g>
<!-- Node14&#45;&gt;Node15 -->
<g id="edge17" class="edge"><title>Node14&#45;&gt;Node15</title>
<path fill="none" stroke="midnightblue" d="M689.5,-56.083C689.5,-49.0059 689.5,-38.8611 689.5,-29.9865"/>
<polygon fill="midnightblue" stroke="midnightblue" points="693,-29.751 689.5,-19.7511 686,-29.7511 693,-29.751"/>
</g>
<!-- Node14&#45;&gt;Node16 -->
<g id="edge18" class="edge"><title>Node14&#45;&gt;Node16</title>
<path fill="none" stroke="midnightblue" d="M700.265,-56.324C710.266,-48.2631 725.387,-36.0765 737.43,-26.3695"/>
<polygon fill="midnightblue" stroke="midnightblue" points="739.95,-28.8343 745.539,-19.8339 735.557,-23.3841 739.95,-28.8343"/>
</g>
<!-- Node14&#45;&gt;Node17 -->
<g id="edge19" class="edge"><title>Node14&#45;&gt;Node17</title>
<path fill="none" stroke="midnightblue" d="M721.68,-56.4586C753.195,-48.0534 802.823,-34.7116 854.775,-20.1686"/>
<polygon fill="midnightblue" stroke="midnightblue" points="855.816,-23.5117 864.498,-17.44 853.925,-16.772 855.816,-23.5117"/>
</g>
<!-- Node18&#45;&gt;Node4 -->
<g id="edge21" class="edge"><title>Node18&#45;&gt;Node4</title>
<path fill="none" stroke="midnightblue" d="M503.158,-62.3079C556.007,-56.7304 677.911,-42.6695 790.346,-19.7766"/>
<polygon fill="midnightblue" stroke="midnightblue" points="791.065,-23.202 800.151,-17.7524 789.65,-16.3466 791.065,-23.202"/>
</g>
<!-- Node18&#45;&gt;Node5 -->
<g id="edge22" class="edge"><title>Node18&#45;&gt;Node5</title>
<path fill="none" stroke="midnightblue" d="M489.353,-56.324C501.716,-47.979 520.63,-35.2122 535.237,-25.3524"/>
<polygon fill="midnightblue" stroke="midnightblue" points="537.348,-28.1503 543.679,-19.6545 533.432,-22.3483 537.348,-28.1503"/>
</g>
<!-- Node18&#45;&gt;Node6 -->
<g id="edge23" class="edge"><title>Node18&#45;&gt;Node6</title>
<path fill="none" stroke="midnightblue" d="M499.793,-56.4435C524.307,-47.4381 563.096,-33.1891 590.7,-23.049"/>
<polygon fill="midnightblue" stroke="midnightblue" points="592.137,-26.25 600.316,-19.5164 589.723,-19.6793 592.137,-26.25"/>
</g>
<!-- Node18&#45;&gt;Node7 -->
<g id="edge25" class="edge"><title>Node18&#45;&gt;Node7</title>
<path fill="none" stroke="midnightblue" d="M449.54,-63.4327C384.456,-59.3634 213.506,-46.9735 61.0353,-19.8245"/>
<polygon fill="midnightblue" stroke="midnightblue" points="61.4834,-16.3489 51.0204,-18.0148 60.2386,-23.2373 61.4834,-16.3489"/>
</g>
<!-- Node18&#45;&gt;Node8 -->
<g id="edge26" class="edge"><title>Node18&#45;&gt;Node8</title>
<path fill="none" stroke="midnightblue" d="M449.881,-62.0185C395.196,-55.7549 266.068,-40.2542 147.683,-20.102"/>
<polygon fill="midnightblue" stroke="midnightblue" points="148.174,-16.6352 137.726,-18.3915 146.989,-23.5341 148.174,-16.6352"/>
</g>
<!-- Node18&#45;&gt;Node9 -->
<g id="edge27" class="edge"><title>Node18&#45;&gt;Node9</title>
<path fill="none" stroke="midnightblue" d="M449.72,-59.9938C407.333,-52.0577 321.931,-36.018 238.992,-20.0848"/>
<polygon fill="midnightblue" stroke="midnightblue" points="239.635,-16.6445 229.154,-18.1932 238.313,-23.5186 239.635,-16.6445"/>
</g>
<!-- Node18&#45;&gt;Node10 -->
<g id="edge28" class="edge"><title>Node18&#45;&gt;Node10</title>
<path fill="none" stroke="midnightblue" d="M449.959,-58.147C418.001,-49.8758 362.447,-35.4347 305.53,-20.256"/>
<polygon fill="midnightblue" stroke="midnightblue" points="306.207,-16.8142 295.643,-17.6154 304.401,-23.5772 306.207,-16.8142"/>
</g>
<!-- Node18&#45;&gt;Node11 -->
<g id="edge29" class="edge"><title>Node18&#45;&gt;Node11</title>
<path fill="none" stroke="midnightblue" d="M455.901,-56.4435C434.507,-47.5566 400.819,-33.5632 376.476,-23.4514"/>
<polygon fill="midnightblue" stroke="midnightblue" points="377.58,-20.1203 367.003,-19.5164 374.895,-26.5848 377.58,-20.1203"/>
</g>
<!-- Node18&#45;&gt;Node12 -->
<g id="edge30" class="edge"><title>Node18&#45;&gt;Node12</title>
<path fill="none" stroke="midnightblue" d="M467.418,-56.083C459.329,-48.1409 447.305,-36.3354 437.59,-26.7973"/>
<polygon fill="midnightblue" stroke="midnightblue" points="440.001,-24.2595 430.413,-19.7511 435.097,-29.2545 440.001,-24.2595"/>
</g>
<!-- Node18&#45;&gt;Node13 -->
<g id="edge31" class="edge"><title>Node18&#45;&gt;Node13</title>
<path fill="none" stroke="midnightblue" d="M478.647,-56.083C480.369,-48.9272 482.847,-38.6353 485,-29.6911"/>
<polygon fill="midnightblue" stroke="midnightblue" points="488.455,-30.2925 487.393,-19.7511 481.65,-28.6541 488.455,-30.2925"/>
</g>
<!-- Node18&#45;&gt;Node15 -->
<g id="edge24" class="edge"><title>Node18&#45;&gt;Node15</title>
<path fill="none" stroke="midnightblue" d="M503.079,-58.5427C536.454,-50.3936 595.703,-35.7928 656.035,-20.08"/>
<polygon fill="midnightblue" stroke="midnightblue" points="656.932,-23.4631 665.723,-17.5495 655.163,-16.6903 656.932,-23.4631"/>
</g>
<!-- Node18&#45;&gt;Node16 -->
<g id="edge32" class="edge"><title>Node18&#45;&gt;Node16</title>
<path fill="none" stroke="midnightblue" d="M503.088,-60.7439C546.523,-53.6563 635.588,-38.5608 721.071,-19.96"/>
<polygon fill="midnightblue" stroke="midnightblue" points="721.919,-23.3573 730.935,-17.7941 720.417,-16.5202 721.919,-23.3573"/>
</g>
<!-- Node18&#45;&gt;Node17 -->
<g id="edge33" class="edge"><title>Node18&#45;&gt;Node17</title>
<path fill="none" stroke="midnightblue" d="M503.391,-63.3318C564.313,-59.2296 717.571,-47.0947 854.434,-19.915"/>
<polygon fill="midnightblue" stroke="midnightblue" points="855.148,-23.3414 864.258,-17.9319 853.763,-16.4798 855.148,-23.3414"/>
</g>
</g>
</svg>
