<?xml version="1.0" encoding="UTF-8" standalone="no"?>
<!DOCTYPE svg PUBLIC "-//W3C//DTD SVG 1.1//EN"
 "http://www.w3.org/Graphics/SVG/1.1/DTD/svg11.dtd">
<!-- Generated by graphviz version 2.38.0 (20140413.2041)
 -->
<!-- Title: msgserv_utils.h Pages: 1 -->
<svg width="917pt" height="140pt"
 viewBox="0.00 0.00 917.00 140.00" xmlns="http://www.w3.org/2000/svg" xmlns:xlink="http://www.w3.org/1999/xlink">
<g id="graph0" class="graph" transform="scale(1 1) rotate(0) translate(4 136)">
<title>msgserv_utils.h</title>
<polygon fill="white" stroke="none" points="-4,4 -4,-136 913,-136 913,4 -4,4"/>
<!-- Node1 -->
<g id="node1" class="node"><title>Node1</title>
<polygon fill="#bfbfbf" stroke="black" points="385,-112.5 385,-131.5 471,-131.5 471,-112.5 385,-112.5"/>
<text text-anchor="middle" x="428" y="-119.5" font-family="Helvetica,sans-Serif" font-size="10.00">msgserv_utils.h</text>
</g>
<!-- Node2 -->
<g id="node2" class="node"><title>Node2</title>
<polygon fill="white" stroke="#bfbfbf" points="0,-0.5 0,-19.5 46,-19.5 46,-0.5 0,-0.5"/>
<text text-anchor="middle" x="23" y="-7.5" font-family="Helvetica,sans-Serif" font-size="10.00">stdio.h</text>
</g>
<!-- Node1&#45;&gt;Node2 -->
<g id="edge1" class="edge"><title>Node1&#45;&gt;Node2</title>
<path fill="none" stroke="midnightblue" d="M384.765,-120.038C325.043,-117.494 214.74,-108.376 127,-76 94.4611,-63.9931 61.2235,-40.9488 41.3509,-25.7748"/>
<polygon fill="midnightblue" stroke="midnightblue" points="43.4906,-23.0049 33.4521,-19.6167 39.1866,-28.5255 43.4906,-23.0049"/>
</g>
<!-- Node3 -->
<g id="node3" class="node"><title>Node3</title>
<polygon fill="white" stroke="#bfbfbf" points="64,-0.5 64,-19.5 112,-19.5 112,-0.5 64,-0.5"/>
<text text-anchor="middle" x="88" y="-7.5" font-family="Helvetica,sans-Serif" font-size="10.00">stdlib.h</text>
</g>
<!-- Node1&#45;&gt;Node3 -->
<g id="edge2" class="edge"><title>Node1&#45;&gt;Node3</title>
<path fill="none" stroke="midnightblue" d="M384.727,-121.195C329.595,-119.824 232.635,-111.891 159,-76 135.643,-64.6152 114.467,-43.0821 101.439,-27.9278"/>
<polygon fill="midnightblue" stroke="midnightblue" points="103.832,-25.3309 94.7551,-19.8672 98.444,-29.7991 103.832,-25.3309"/>
</g>
<!-- Node4 -->
<g id="node4" class="node"><title>Node4</title>
<polygon fill="white" stroke="#bfbfbf" points="130.5,-0.5 130.5,-19.5 179.5,-19.5 179.5,-0.5 130.5,-0.5"/>
<text text-anchor="middle" x="155" y="-7.5" font-family="Helvetica,sans-Serif" font-size="10.00">string.h</text>
</g>
<!-- Node1&#45;&gt;Node4 -->
<g id="edge3" class="edge"><title>Node1&#45;&gt;Node4</title>
<path fill="none" stroke="midnightblue" d="M384.904,-118.577C321.3,-114.149 206.513,-102.628 176,-76 162.756,-64.4428 157.809,-44.4792 155.99,-29.7177"/>
<polygon fill="midnightblue" stroke="midnightblue" points="159.47,-29.3313 155.124,-19.6689 152.496,-29.9326 159.47,-29.3313"/>
</g>
<!-- Node5 -->
<g id="node5" class="node"><title>Node5</title>
<polygon fill="white" stroke="#bfbfbf" points="394.5,-0.5 394.5,-19.5 445.5,-19.5 445.5,-0.5 394.5,-0.5"/>
<text text-anchor="middle" x="420" y="-7.5" font-family="Helvetica,sans-Serif" font-size="10.00">unistd.h</text>
</g>
<!-- Node1&#45;&gt;Node5 -->
<g id="edge4" class="edge"><title>Node1&#45;&gt;Node5</title>
<path fill="none" stroke="midnightblue" d="M430.734,-112.129C434.229,-99.5782 439.44,-75.9439 436,-56 434.432,-46.9098 431.205,-37.2219 428.057,-29.1726"/>
<polygon fill="midnightblue" stroke="midnightblue" points="431.194,-27.6018 424.111,-19.7229 424.735,-30.2993 431.194,-27.6018"/>
</g>
<!-- Node6 -->
<g id="node6" class="node"><title>Node6</title>
<polygon fill="white" stroke="#bfbfbf" points="464,-0.5 464,-19.5 532,-19.5 532,-0.5 464,-0.5"/>
<text text-anchor="middle" x="498" y="-7.5" font-family="Helvetica,sans-Serif" font-size="10.00">sys/types.h</text>
</g>
<!-- Node1&#45;&gt;Node6 -->
<g id="edge5" class="edge"><title>Node1&#45;&gt;Node6</title>
<path fill="none" stroke="midnightblue" d="M433.493,-112.368C444.994,-94.2957 471.797,-52.1764 486.986,-28.3074"/>
<polygon fill="midnightblue" stroke="midnightblue" points="490.117,-29.9071 492.533,-19.5914 484.211,-26.149 490.117,-29.9071"/>
</g>
<!-- Node7 -->
<g id="node7" class="node"><title>Node7</title>
<polygon fill="white" stroke="#bfbfbf" points="550.5,-0.5 550.5,-19.5 623.5,-19.5 623.5,-0.5 550.5,-0.5"/>
<text text-anchor="middle" x="587" y="-7.5" font-family="Helvetica,sans-Serif" font-size="10.00">sys/socket.h</text>
</g>
<!-- Node1&#45;&gt;Node7 -->
<g id="edge6" class="edge"><title>Node1&#45;&gt;Node7</title>
<path fill="none" stroke="midnightblue" d="M440.476,-112.368C467.645,-93.5728 532.408,-48.7684 565.993,-25.5334"/>
<polygon fill="midnightblue" stroke="midnightblue" points="568.349,-28.1592 574.581,-19.5914 564.366,-22.4025 568.349,-28.1592"/>
</g>
<!-- Node8 -->
<g id="node8" class="node"><title>Node8</title>
<polygon fill="white" stroke="#bfbfbf" points="642,-0.5 642,-19.5 690,-19.5 690,-0.5 642,-0.5"/>
<text text-anchor="middle" x="666" y="-7.5" font-family="Helvetica,sans-Serif" font-size="10.00">limits.h</text>
</g>
<!-- Node1&#45;&gt;Node8 -->
<g id="edge7" class="edge"><title>Node1&#45;&gt;Node8</title>
<path fill="none" stroke="midnightblue" d="M446.675,-112.368C488.385,-93.0908 589.291,-46.4536 638.328,-23.7894"/>
<polygon fill="midnightblue" stroke="midnightblue" points="639.802,-26.964 647.411,-19.5914 636.866,-20.6098 639.802,-26.964"/>
</g>
<!-- Node9 -->
<g id="node9" class="node"><title>Node9</title>
<polygon fill="white" stroke="#bfbfbf" points="708.5,-0.5 708.5,-19.5 773.5,-19.5 773.5,-0.5 708.5,-0.5"/>
<text text-anchor="middle" x="741" y="-7.5" font-family="Helvetica,sans-Serif" font-size="10.00">netinet/in.h</text>
</g>
<!-- Node1&#45;&gt;Node9 -->
<g id="edge8" class="edge"><title>Node1&#45;&gt;Node9</title>
<path fill="none" stroke="midnightblue" d="M454.003,-112.476C481.047,-103.561 524.585,-89.0734 562,-76 613.352,-58.0566 672.635,-36.3285 708.442,-23.0924"/>
<polygon fill="midnightblue" stroke="midnightblue" points="709.73,-26.3479 717.893,-19.5945 707.3,-19.7831 709.73,-26.3479"/>
</g>
<!-- Node10 -->
<g id="node10" class="node"><title>Node10</title>
<polygon fill="white" stroke="#bfbfbf" points="791.5,-0.5 791.5,-19.5 840.5,-19.5 840.5,-0.5 791.5,-0.5"/>
<text text-anchor="middle" x="816" y="-7.5" font-family="Helvetica,sans-Serif" font-size="10.00">netdb.h</text>
</g>
<!-- Node1&#45;&gt;Node10 -->
<g id="edge9" class="edge"><title>Node1&#45;&gt;Node10</title>
<path fill="none" stroke="midnightblue" d="M463.527,-112.438C499.168,-103.727 555.571,-89.6072 604,-76 666.999,-58.299 739.805,-35.4466 781.619,-22.0882"/>
<polygon fill="midnightblue" stroke="midnightblue" points="782.851,-25.3689 791.307,-18.9858 780.716,-18.7024 782.851,-25.3689"/>
</g>
<!-- Node11 -->
<g id="node11" class="node"><title>Node11</title>
<polygon fill="white" stroke="#bfbfbf" points="859,-0.5 859,-19.5 909,-19.5 909,-0.5 859,-0.5"/>
<text text-anchor="middle" x="884" y="-7.5" font-family="Helvetica,sans-Serif" font-size="10.00">signal.h</text>
</g>
<!-- Node1&#45;&gt;Node11 -->
<g id="edge10" class="edge"><title>Node1&#45;&gt;Node11</title>
<path fill="none" stroke="midnightblue" d="M471.172,-113.188C516.053,-104.848 588.242,-90.817 650,-76 721.279,-58.8988 803.663,-35.0475 849.197,-21.5011"/>
<polygon fill="midnightblue" stroke="midnightblue" points="850.294,-24.8263 858.875,-18.6118 848.292,-18.1188 850.294,-24.8263"/>
</g>
<!-- Node12 -->
<g id="node12" class="node"><title>Node12</title>
<g id="a_node12"><a xlink:href="msg__table_8h.html" target="_top" xlink:title="Function prototypes for msg_table.c. ">
<polygon fill="white" stroke="black" points="185,-56.5 185,-75.5 255,-75.5 255,-56.5 185,-56.5"/>
<text text-anchor="middle" x="220" y="-63.5" font-family="Helvetica,sans-Serif" font-size="10.00">msg_table.h</text>
</a>
</g>
</g>
<!-- Node1&#45;&gt;Node12 -->
<g id="edge11" class="edge"><title>Node1&#45;&gt;Node12</title>
<path fill="none" stroke="midnightblue" d="M395.042,-112.444C359.213,-103.142 301.837,-88.246 262.609,-78.062"/>
<polygon fill="midnightblue" stroke="midnightblue" points="263.363,-74.6417 252.804,-75.5164 261.604,-81.4171 263.363,-74.6417"/>
</g>
<!-- Node14 -->
<g id="node14" class="node"><title>Node14</title>
<g id="a_node14"><a xlink:href="debug_8h.html" target="_top" xlink:title="Macros for debug and verbose options. ">
<polygon fill="white" stroke="black" points="260.5,-0.5 260.5,-19.5 311.5,-19.5 311.5,-0.5 260.5,-0.5"/>
<text text-anchor="middle" x="286" y="-7.5" font-family="Helvetica,sans-Serif" font-size="10.00">debug.h</text>
</a>
</g>
</g>
<!-- Node1&#45;&gt;Node14 -->
<g id="edge32" class="edge"><title>Node1&#45;&gt;Node14</title>
<path fill="none" stroke="midnightblue" d="M415.265,-112.284C402.407,-103.395 382.063,-89.0896 365,-76 343.597,-59.5818 319.785,-39.7668 303.954,-26.3639"/>
<polygon fill="midnightblue" stroke="midnightblue" points="305.932,-23.4516 296.047,-19.6399 301.398,-28.7843 305.932,-23.4516"/>
</g>
<!-- Node15 -->
<g id="node15" class="node"><title>Node15</title>
<g id="a_node15"><a xlink:href="defs_8h.html" target="_top" xlink:title="Useful definitions. ">
<polygon fill="white" stroke="black" points="198,-0.5 198,-19.5 242,-19.5 242,-0.5 198,-0.5"/>
<text text-anchor="middle" x="220" y="-7.5" font-family="Helvetica,sans-Serif" font-size="10.00">defs.h</text>
</a>
</g>
</g>
<!-- Node1&#45;&gt;Node15 -->
<g id="edge33" class="edge"><title>Node1&#45;&gt;Node15</title>
<path fill="none" stroke="midnightblue" d="M410.087,-112.455C391.642,-103.583 362.128,-89.1831 337,-76 304.447,-58.9212 267.446,-38.1276 243.926,-24.733"/>
<polygon fill="midnightblue" stroke="midnightblue" points="245.439,-21.5664 235.02,-19.647 241.968,-27.6452 245.439,-21.5664"/>
</g>
<!-- Node16 -->
<g id="node16" class="node"><title>Node16</title>
<g id="a_node16"><a xlink:href="sv__list_8h.html" target="_top" xlink:title="Function prototypes for sv_list.c. ">
<polygon fill="white" stroke="black" points="374.5,-56.5 374.5,-75.5 427.5,-75.5 427.5,-56.5 374.5,-56.5"/>
<text text-anchor="middle" x="401" y="-63.5" font-family="Helvetica,sans-Serif" font-size="10.00">sv_list.h</text>
</a>
</g>
</g>
<!-- Node1&#45;&gt;Node16 -->
<g id="edge18" class="edge"><title>Node1&#45;&gt;Node16</title>
<path fill="none" stroke="midnightblue" d="M423.541,-112.083C419.846,-104.691 414.477,-93.9533 409.906,-84.8111"/>
<polygon fill="midnightblue" stroke="midnightblue" points="412.978,-83.1301 405.376,-75.7511 406.717,-86.2606 412.978,-83.1301"/>
</g>
<!-- Node12&#45;&gt;Node2 -->
<g id="edge12" class="edge"><title>Node12&#45;&gt;Node2</title>
<path fill="none" stroke="midnightblue" d="M188.348,-56.4474C157.064,-47.9768 107.585,-34.5326 55.7653,-20.197"/>
<polygon fill="midnightblue" stroke="midnightblue" points="56.6374,-16.8068 46.0659,-17.5108 54.769,-23.5529 56.6374,-16.8068"/>
</g>
<!-- Node12&#45;&gt;Node3 -->
<g id="edge13" class="edge"><title>Node12&#45;&gt;Node3</title>
<path fill="none" stroke="midnightblue" d="M199.084,-56.4435C177.264,-47.5171 142.85,-33.4387 118.108,-23.3168"/>
<polygon fill="midnightblue" stroke="midnightblue" points="119.399,-20.0634 108.818,-19.5164 116.748,-26.5422 119.399,-20.0634"/>
</g>
<!-- Node12&#45;&gt;Node4 -->
<g id="edge14" class="edge"><title>Node12&#45;&gt;Node4</title>
<path fill="none" stroke="midnightblue" d="M209.557,-56.324C199.854,-48.2631 185.185,-36.0765 173.5,-26.3695"/>
<polygon fill="midnightblue" stroke="midnightblue" points="175.562,-23.532 165.633,-19.8339 171.089,-28.9163 175.562,-23.532"/>
</g>
<!-- Node13 -->
<g id="node13" class="node"><title>Node13</title>
<polygon fill="white" stroke="#bfbfbf" points="329.5,-0.5 329.5,-19.5 376.5,-19.5 376.5,-0.5 329.5,-0.5"/>
<text text-anchor="middle" x="353" y="-7.5" font-family="Helvetica,sans-Serif" font-size="10.00">math.h</text>
</g>
<!-- Node12&#45;&gt;Node13 -->
<g id="edge15" class="edge"><title>Node12&#45;&gt;Node13</title>
<path fill="none" stroke="midnightblue" d="M241.074,-56.4435C263.06,-47.5171 297.734,-33.4387 322.664,-23.3168"/>
<polygon fill="midnightblue" stroke="midnightblue" points="324.076,-26.5213 332.024,-19.5164 321.442,-20.0355 324.076,-26.5213"/>
</g>
<!-- Node12&#45;&gt;Node14 -->
<g id="edge16" class="edge"><title>Node12&#45;&gt;Node14</title>
<path fill="none" stroke="midnightblue" d="M230.604,-56.324C240.456,-48.2631 255.351,-36.0765 267.215,-26.3695"/>
<polygon fill="midnightblue" stroke="midnightblue" points="269.68,-28.8752 275.203,-19.8339 265.247,-23.4575 269.68,-28.8752"/>
</g>
<!-- Node12&#45;&gt;Node15 -->
<g id="edge17" class="edge"><title>Node12&#45;&gt;Node15</title>
<path fill="none" stroke="midnightblue" d="M220,-56.083C220,-49.0059 220,-38.8611 220,-29.9865"/>
<polygon fill="midnightblue" stroke="midnightblue" points="223.5,-29.751 220,-19.7511 216.5,-29.7511 223.5,-29.751"/>
</g>
<!-- Node16&#45;&gt;Node2 -->
<g id="edge19" class="edge"><title>Node16&#45;&gt;Node2</title>
<path fill="none" stroke="midnightblue" d="M374.304,-62.8558C317.484,-58.0103 180.293,-44.8154 56.3607,-20.0209"/>
<polygon fill="midnightblue" stroke="midnightblue" points="56.8198,-16.5427 46.323,-17.9809 55.4256,-23.4025 56.8198,-16.5427"/>
</g>
<!-- Node16&#45;&gt;Node3 -->
<g id="edge20" class="edge"><title>Node16&#45;&gt;Node3</title>
<path fill="none" stroke="midnightblue" d="M374.184,-61.6619C325.733,-55.4228 220.247,-40.89 121.878,-19.9945"/>
<polygon fill="midnightblue" stroke="midnightblue" points="122.59,-16.5676 112.077,-17.886 121.118,-23.411 122.59,-16.5676"/>
</g>
<!-- Node16&#45;&gt;Node4 -->
<g id="edge21" class="edge"><title>Node16&#45;&gt;Node4</title>
<path fill="none" stroke="midnightblue" d="M374.465,-59.8075C335.957,-52.1771 262.13,-37.1926 189.604,-20.0507"/>
<polygon fill="midnightblue" stroke="midnightblue" points="190.385,-16.6388 179.847,-17.7292 188.765,-23.4488 190.385,-16.6388"/>
</g>
<!-- Node16&#45;&gt;Node5 -->
<g id="edge23" class="edge"><title>Node16&#45;&gt;Node5</title>
<path fill="none" stroke="midnightblue" d="M404.137,-56.083C406.683,-48.8486 410.356,-38.4087 413.527,-29.3968"/>
<polygon fill="midnightblue" stroke="midnightblue" points="416.903,-30.3459 416.921,-19.7511 410.3,-28.0225 416.903,-30.3459"/>
</g>
<!-- Node16&#45;&gt;Node6 -->
<g id="edge24" class="edge"><title>Node16&#45;&gt;Node6</title>
<path fill="none" stroke="midnightblue" d="M416.585,-56.324C431.999,-47.7428 455.812,-34.486 473.71,-24.5224"/>
<polygon fill="midnightblue" stroke="midnightblue" points="475.419,-27.5767 482.454,-19.6545 472.014,-21.4606 475.419,-27.5767"/>
</g>
<!-- Node16&#45;&gt;Node7 -->
<g id="edge25" class="edge"><title>Node16&#45;&gt;Node7</title>
<path fill="none" stroke="midnightblue" d="M427.649,-57.2631C459.143,-48.1198 511.818,-32.8269 547.925,-22.3443"/>
<polygon fill="midnightblue" stroke="midnightblue" points="549.011,-25.6737 557.638,-19.5243 547.059,-18.9513 549.011,-25.6737"/>
</g>
<!-- Node16&#45;&gt;Node8 -->
<g id="edge26" class="edge"><title>Node16&#45;&gt;Node8</title>
<path fill="none" stroke="midnightblue" d="M427.579,-60.5105C469.064,-53.3603 551.915,-38.5087 631.687,-20.1674"/>
<polygon fill="midnightblue" stroke="midnightblue" points="632.953,-23.4666 641.902,-17.7953 631.37,-16.6481 632.953,-23.4666"/>
</g>
<!-- Node16&#45;&gt;Node9 -->
<g id="edge27" class="edge"><title>Node16&#45;&gt;Node9</title>
<path fill="none" stroke="midnightblue" d="M427.804,-61.5128C478.529,-54.7933 592.239,-39.1588 698.547,-19.9805"/>
<polygon fill="midnightblue" stroke="midnightblue" points="699.267,-23.407 708.48,-18.1741 698.015,-16.52 699.267,-23.407"/>
</g>
<!-- Node16&#45;&gt;Node10 -->
<g id="edge28" class="edge"><title>Node16&#45;&gt;Node10</title>
<path fill="none" stroke="midnightblue" d="M427.608,-63.2367C488.629,-58.9023 643.424,-46.2563 781.329,-20.0892"/>
<polygon fill="midnightblue" stroke="midnightblue" points="782.07,-23.5108 791.227,-18.1817 780.745,-16.6372 782.07,-23.5108"/>
</g>
<!-- Node16&#45;&gt;Node11 -->
<g id="edge29" class="edge"><title>Node16&#45;&gt;Node11</title>
<path fill="none" stroke="midnightblue" d="M427.521,-63.815C495.871,-60.4501 683.674,-49.2361 848.997,-19.9084"/>
<polygon fill="midnightblue" stroke="midnightblue" points="849.628,-23.3512 858.849,-18.1341 848.387,-16.462 849.628,-23.3512"/>
</g>
<!-- Node16&#45;&gt;Node13 -->
<g id="edge22" class="edge"><title>Node16&#45;&gt;Node13</title>
<path fill="none" stroke="midnightblue" d="M393.074,-56.083C386.154,-48.2982 375.935,-36.8015 367.548,-27.3665"/>
<polygon fill="midnightblue" stroke="midnightblue" points="370.038,-24.8999 360.779,-19.7511 364.806,-29.5505 370.038,-24.8999"/>
</g>
<!-- Node16&#45;&gt;Node14 -->
<g id="edge30" class="edge"><title>Node16&#45;&gt;Node14</title>
<path fill="none" stroke="midnightblue" d="M382.778,-56.4435C364.104,-47.6751 334.844,-33.9355 313.383,-23.8579"/>
<polygon fill="midnightblue" stroke="midnightblue" points="314.676,-20.5988 304.137,-19.5164 311.701,-26.935 314.676,-20.5988"/>
</g>
<!-- Node16&#45;&gt;Node15 -->
<g id="edge31" class="edge"><title>Node16&#45;&gt;Node15</title>
<path fill="none" stroke="midnightblue" d="M374.293,-57.0321C341.714,-47.3126 286.695,-30.8981 251.917,-20.5223"/>
<polygon fill="midnightblue" stroke="midnightblue" points="252.834,-17.1434 242.251,-17.6384 250.833,-23.8513 252.834,-17.1434"/>
</g>
</g>
</svg>
