<?xml version="1.0" encoding="UTF-8" standalone="no"?>
<!DOCTYPE svg PUBLIC "-//W3C//DTD SVG 1.1//EN"
 "http://www.w3.org/Graphics/SVG/1.1/DTD/svg11.dtd">
<!-- Generated by graphviz version 2.38.0 (20140413.2041)
 -->
<!-- Title: rmb_utils.h Pages: 1 -->
<svg width="716pt" height="84pt"
 viewBox="0.00 0.00 716.00 84.00" xmlns="http://www.w3.org/2000/svg" xmlns:xlink="http://www.w3.org/1999/xlink">
<g id="graph0" class="graph" transform="scale(1 1) rotate(0) translate(4 80)">
<title>rmb_utils.h</title>
<polygon fill="white" stroke="none" points="-4,4 -4,-80 712,-80 712,4 -4,4"/>
<!-- Node1 -->
<g id="node1" class="node"><title>Node1</title>
<polygon fill="#bfbfbf" stroke="black" points="312.5,-56.5 312.5,-75.5 377.5,-75.5 377.5,-56.5 312.5,-56.5"/>
<text text-anchor="middle" x="345" y="-63.5" font-family="Helvetica,sans-Serif" font-size="10.00">rmb_utils.h</text>
</g>
<!-- Node2 -->
<g id="node2" class="node"><title>Node2</title>
<polygon fill="white" stroke="#bfbfbf" points="0,-0.5 0,-19.5 46,-19.5 46,-0.5 0,-0.5"/>
<text text-anchor="middle" x="23" y="-7.5" font-family="Helvetica,sans-Serif" font-size="10.00">stdio.h</text>
</g>
<!-- Node1&#45;&gt;Node2 -->
<g id="edge1" class="edge"><title>Node1&#45;&gt;Node2</title>
<path fill="none" stroke="midnightblue" d="M312.145,-61.2092C259.875,-54.8957 154.436,-41.0099 56.1318,-20.0326"/>
<polygon fill="midnightblue" stroke="midnightblue" points="56.8513,-16.6074 46.3373,-17.9134 55.371,-23.4491 56.8513,-16.6074"/>
</g>
<!-- Node3 -->
<g id="node3" class="node"><title>Node3</title>
<polygon fill="white" stroke="#bfbfbf" points="64,-0.5 64,-19.5 112,-19.5 112,-0.5 64,-0.5"/>
<text text-anchor="middle" x="88" y="-7.5" font-family="Helvetica,sans-Serif" font-size="10.00">stdlib.h</text>
</g>
<!-- Node1&#45;&gt;Node3 -->
<g id="edge2" class="edge"><title>Node1&#45;&gt;Node3</title>
<path fill="none" stroke="midnightblue" d="M312.203,-59.1342C270.304,-51.4827 195.349,-37.2671 121.973,-20.1056"/>
<polygon fill="midnightblue" stroke="midnightblue" points="122.639,-16.6667 112.102,-17.7765 121.031,-23.4796 122.639,-16.6667"/>
</g>
<!-- Node4 -->
<g id="node4" class="node"><title>Node4</title>
<polygon fill="white" stroke="#bfbfbf" points="130.5,-0.5 130.5,-19.5 179.5,-19.5 179.5,-0.5 130.5,-0.5"/>
<text text-anchor="middle" x="155" y="-7.5" font-family="Helvetica,sans-Serif" font-size="10.00">string.h</text>
</g>
<!-- Node1&#45;&gt;Node4 -->
<g id="edge3" class="edge"><title>Node1&#45;&gt;Node4</title>
<path fill="none" stroke="midnightblue" d="M314.894,-56.4435C280.799,-46.7534 225.342,-30.9921 189.522,-20.8115"/>
<polygon fill="midnightblue" stroke="midnightblue" points="190.103,-17.3382 179.528,-17.971 188.19,-24.0716 190.103,-17.3382"/>
</g>
<!-- Node5 -->
<g id="node5" class="node"><title>Node5</title>
<polygon fill="white" stroke="#bfbfbf" points="197.5,-0.5 197.5,-19.5 248.5,-19.5 248.5,-0.5 197.5,-0.5"/>
<text text-anchor="middle" x="223" y="-7.5" font-family="Helvetica,sans-Serif" font-size="10.00">unistd.h</text>
</g>
<!-- Node1&#45;&gt;Node5 -->
<g id="edge4" class="edge"><title>Node1&#45;&gt;Node5</title>
<path fill="none" stroke="midnightblue" d="M325.669,-56.4435C305.68,-47.5961 274.257,-33.6875 251.436,-23.5865"/>
<polygon fill="midnightblue" stroke="midnightblue" points="252.802,-20.3635 242.241,-19.5164 249.968,-26.7645 252.802,-20.3635"/>
</g>
<!-- Node6 -->
<g id="node6" class="node"><title>Node6</title>
<polygon fill="white" stroke="#bfbfbf" points="267,-0.5 267,-19.5 335,-19.5 335,-0.5 267,-0.5"/>
<text text-anchor="middle" x="301" y="-7.5" font-family="Helvetica,sans-Serif" font-size="10.00">sys/types.h</text>
</g>
<!-- Node1&#45;&gt;Node6 -->
<g id="edge5" class="edge"><title>Node1&#45;&gt;Node6</title>
<path fill="none" stroke="midnightblue" d="M337.734,-56.083C331.455,-48.3768 322.212,-37.0333 314.569,-27.6531"/>
<polygon fill="midnightblue" stroke="midnightblue" points="317.161,-25.2926 308.131,-19.7511 311.734,-29.7143 317.161,-25.2926"/>
</g>
<!-- Node7 -->
<g id="node7" class="node"><title>Node7</title>
<polygon fill="white" stroke="#bfbfbf" points="353.5,-0.5 353.5,-19.5 426.5,-19.5 426.5,-0.5 353.5,-0.5"/>
<text text-anchor="middle" x="390" y="-7.5" font-family="Helvetica,sans-Serif" font-size="10.00">sys/socket.h</text>
</g>
<!-- Node1&#45;&gt;Node7 -->
<g id="edge6" class="edge"><title>Node1&#45;&gt;Node7</title>
<path fill="none" stroke="midnightblue" d="M352.431,-56.083C358.853,-48.3768 368.306,-37.0333 376.122,-27.6531"/>
<polygon fill="midnightblue" stroke="midnightblue" points="378.994,-29.674 382.707,-19.7511 373.617,-25.1927 378.994,-29.674"/>
</g>
<!-- Node8 -->
<g id="node8" class="node"><title>Node8</title>
<polygon fill="white" stroke="#bfbfbf" points="444.5,-0.5 444.5,-19.5 509.5,-19.5 509.5,-0.5 444.5,-0.5"/>
<text text-anchor="middle" x="477" y="-7.5" font-family="Helvetica,sans-Serif" font-size="10.00">netinet/in.h</text>
</g>
<!-- Node1&#45;&gt;Node8 -->
<g id="edge7" class="edge"><title>Node1&#45;&gt;Node8</title>
<path fill="none" stroke="midnightblue" d="M365.916,-56.4435C387.736,-47.5171 422.15,-33.4387 446.892,-23.3168"/>
<polygon fill="midnightblue" stroke="midnightblue" points="448.252,-26.5422 456.182,-19.5164 445.601,-20.0634 448.252,-26.5422"/>
</g>
<!-- Node9 -->
<g id="node9" class="node"><title>Node9</title>
<polygon fill="white" stroke="#bfbfbf" points="527.5,-0.5 527.5,-19.5 576.5,-19.5 576.5,-0.5 527.5,-0.5"/>
<text text-anchor="middle" x="552" y="-7.5" font-family="Helvetica,sans-Serif" font-size="10.00">netdb.h</text>
</g>
<!-- Node1&#45;&gt;Node9 -->
<g id="edge8" class="edge"><title>Node1&#45;&gt;Node9</title>
<path fill="none" stroke="midnightblue" d="M377.744,-56.6686C410.762,-48.2375 463.448,-34.7022 517.413,-20.4003"/>
<polygon fill="midnightblue" stroke="midnightblue" points="518.376,-23.7658 527.143,-17.8168 516.58,-17.0002 518.376,-23.7658"/>
</g>
<!-- Node10 -->
<g id="node10" class="node"><title>Node10</title>
<g id="a_node10"><a xlink:href="debug_8h.html" target="_top" xlink:title="Macros for debug and verbose options. ">
<polygon fill="white" stroke="black" points="594.5,-0.5 594.5,-19.5 645.5,-19.5 645.5,-0.5 594.5,-0.5"/>
<text text-anchor="middle" x="620" y="-7.5" font-family="Helvetica,sans-Serif" font-size="10.00">debug.h</text>
</a>
</g>
</g>
<!-- Node1&#45;&gt;Node10 -->
<g id="edge9" class="edge"><title>Node1&#45;&gt;Node10</title>
<path fill="none" stroke="midnightblue" d="M377.511,-59.7175C422.051,-52.3092 504.74,-37.9463 584.249,-20.2717"/>
<polygon fill="midnightblue" stroke="midnightblue" points="585.44,-23.5916 594.43,-17.9859 583.906,-16.7616 585.44,-23.5916"/>
</g>
<!-- Node11 -->
<g id="node11" class="node"><title>Node11</title>
<g id="a_node11"><a xlink:href="defs_8h.html" target="_top" xlink:title="Useful definitions. ">
<polygon fill="white" stroke="black" points="664,-0.5 664,-19.5 708,-19.5 708,-0.5 664,-0.5"/>
<text text-anchor="middle" x="686" y="-7.5" font-family="Helvetica,sans-Serif" font-size="10.00">defs.h</text>
</a>
</g>
</g>
<!-- Node1&#45;&gt;Node11 -->
<g id="edge10" class="edge"><title>Node1&#45;&gt;Node11</title>
<path fill="none" stroke="midnightblue" d="M377.847,-61.7439C433.009,-55.9504 547.849,-42.496 653.844,-19.9952"/>
<polygon fill="midnightblue" stroke="midnightblue" points="654.705,-23.39 663.743,-17.8614 653.23,-16.5472 654.705,-23.39"/>
</g>
</g>
</svg>
