<?xml version="1.0" encoding="UTF-8" standalone="no"?>
<!DOCTYPE svg PUBLIC "-//W3C//DTD SVG 1.1//EN"
 "http://www.w3.org/Graphics/SVG/1.1/DTD/svg11.dtd">
<!-- Generated by graphviz version 2.38.0 (20140413.2041)
 -->
<!-- Title: sv_list.h Pages: 1 -->
<svg width="917pt" height="84pt"
 viewBox="0.00 0.00 917.00 84.00" xmlns="http://www.w3.org/2000/svg" xmlns:xlink="http://www.w3.org/1999/xlink">
<g id="graph0" class="graph" transform="scale(1 1) rotate(0) translate(4 80)">
<title>sv_list.h</title>
<polygon fill="white" stroke="none" points="-4,4 -4,-80 913,-80 913,4 -4,4"/>
<!-- Node1 -->
<g id="node1" class="node"><title>Node1</title>
<polygon fill="#bfbfbf" stroke="black" points="428.5,-56.5 428.5,-75.5 481.5,-75.5 481.5,-56.5 428.5,-56.5"/>
<text text-anchor="middle" x="455" y="-63.5" font-family="Helvetica,sans-Serif" font-size="10.00">sv_list.h</text>
</g>
<!-- Node2 -->
<g id="node2" class="node"><title>Node2</title>
<polygon fill="white" stroke="#bfbfbf" points="0,-0.5 0,-19.5 46,-19.5 46,-0.5 0,-0.5"/>
<text text-anchor="middle" x="23" y="-7.5" font-family="Helvetica,sans-Serif" font-size="10.00">stdio.h</text>
</g>
<!-- Node1&#45;&gt;Node2 -->
<g id="edge1" class="edge"><title>Node1&#45;&gt;Node2</title>
<path fill="none" stroke="midnightblue" d="M428.089,-63.4835C364.785,-59.5965 201.441,-47.7068 56.2888,-19.9659"/>
<polygon fill="midnightblue" stroke="midnightblue" points="56.7974,-16.4993 46.3135,-18.0285 55.4628,-23.3709 56.7974,-16.4993"/>
</g>
<!-- Node3 -->
<g id="node3" class="node"><title>Node3</title>
<polygon fill="white" stroke="#bfbfbf" points="64,-0.5 64,-19.5 112,-19.5 112,-0.5 64,-0.5"/>
<text text-anchor="middle" x="88" y="-7.5" font-family="Helvetica,sans-Serif" font-size="10.00">stdlib.h</text>
</g>
<!-- Node1&#45;&gt;Node3 -->
<g id="edge2" class="edge"><title>Node1&#45;&gt;Node3</title>
<path fill="none" stroke="midnightblue" d="M428.389,-62.6224C373.107,-57.4265 241.7,-43.7437 122.118,-19.9854"/>
<polygon fill="midnightblue" stroke="midnightblue" points="122.557,-16.5036 112.062,-17.9577 121.173,-23.3655 122.557,-16.5036"/>
</g>
<!-- Node4 -->
<g id="node4" class="node"><title>Node4</title>
<polygon fill="white" stroke="#bfbfbf" points="130.5,-0.5 130.5,-19.5 179.5,-19.5 179.5,-0.5 130.5,-0.5"/>
<text text-anchor="middle" x="155" y="-7.5" font-family="Helvetica,sans-Serif" font-size="10.00">string.h</text>
</g>
<!-- Node1&#45;&gt;Node4 -->
<g id="edge3" class="edge"><title>Node1&#45;&gt;Node4</title>
<path fill="none" stroke="midnightblue" d="M428.304,-61.3968C381.701,-54.9151 282.327,-40.2443 189.616,-20.196"/>
<polygon fill="midnightblue" stroke="midnightblue" points="190.318,-16.7669 179.801,-18.0475 188.821,-23.605 190.318,-16.7669"/>
</g>
<!-- Node5 -->
<g id="node5" class="node"><title>Node5</title>
<polygon fill="white" stroke="#bfbfbf" points="197.5,-0.5 197.5,-19.5 244.5,-19.5 244.5,-0.5 197.5,-0.5"/>
<text text-anchor="middle" x="221" y="-7.5" font-family="Helvetica,sans-Serif" font-size="10.00">math.h</text>
</g>
<!-- Node1&#45;&gt;Node5 -->
<g id="edge4" class="edge"><title>Node1&#45;&gt;Node5</title>
<path fill="none" stroke="midnightblue" d="M428.42,-59.5652C391.505,-51.9123 322.414,-37.2113 254.703,-20.3349"/>
<polygon fill="midnightblue" stroke="midnightblue" points="255.278,-16.8708 244.727,-17.8298 253.573,-23.66 255.278,-16.8708"/>
</g>
<!-- Node6 -->
<g id="node6" class="node"><title>Node6</title>
<polygon fill="white" stroke="#bfbfbf" points="262.5,-0.5 262.5,-19.5 313.5,-19.5 313.5,-0.5 262.5,-0.5"/>
<text text-anchor="middle" x="288" y="-7.5" font-family="Helvetica,sans-Serif" font-size="10.00">unistd.h</text>
</g>
<!-- Node1&#45;&gt;Node6 -->
<g id="edge5" class="edge"><title>Node1&#45;&gt;Node6</title>
<path fill="none" stroke="midnightblue" d="M428.538,-56.4435C400.073,-47.2391 354.667,-32.5568 323.203,-22.3829"/>
<polygon fill="midnightblue" stroke="midnightblue" points="324.108,-18.9973 313.516,-19.2508 321.954,-25.6578 324.108,-18.9973"/>
</g>
<!-- Node7 -->
<g id="node7" class="node"><title>Node7</title>
<polygon fill="white" stroke="#bfbfbf" points="332,-0.5 332,-19.5 400,-19.5 400,-0.5 332,-0.5"/>
<text text-anchor="middle" x="366" y="-7.5" font-family="Helvetica,sans-Serif" font-size="10.00">sys/types.h</text>
</g>
<!-- Node1&#45;&gt;Node7 -->
<g id="edge6" class="edge"><title>Node1&#45;&gt;Node7</title>
<path fill="none" stroke="midnightblue" d="M440.701,-56.324C426.817,-47.9002 405.508,-34.9709 389.196,-25.0741"/>
<polygon fill="midnightblue" stroke="midnightblue" points="390.629,-21.8495 380.264,-19.6545 386.998,-27.8341 390.629,-21.8495"/>
</g>
<!-- Node8 -->
<g id="node8" class="node"><title>Node8</title>
<polygon fill="white" stroke="#bfbfbf" points="418.5,-0.5 418.5,-19.5 491.5,-19.5 491.5,-0.5 418.5,-0.5"/>
<text text-anchor="middle" x="455" y="-7.5" font-family="Helvetica,sans-Serif" font-size="10.00">sys/socket.h</text>
</g>
<!-- Node1&#45;&gt;Node8 -->
<g id="edge7" class="edge"><title>Node1&#45;&gt;Node8</title>
<path fill="none" stroke="midnightblue" d="M455,-56.083C455,-49.0059 455,-38.8611 455,-29.9865"/>
<polygon fill="midnightblue" stroke="midnightblue" points="458.5,-29.751 455,-19.7511 451.5,-29.7511 458.5,-29.751"/>
</g>
<!-- Node9 -->
<g id="node9" class="node"><title>Node9</title>
<polygon fill="white" stroke="#bfbfbf" points="510,-0.5 510,-19.5 558,-19.5 558,-0.5 510,-0.5"/>
<text text-anchor="middle" x="534" y="-7.5" font-family="Helvetica,sans-Serif" font-size="10.00">limits.h</text>
</g>
<!-- Node1&#45;&gt;Node9 -->
<g id="edge8" class="edge"><title>Node1&#45;&gt;Node9</title>
<path fill="none" stroke="midnightblue" d="M467.693,-56.324C479.901,-47.979 498.578,-35.2122 513.003,-25.3524"/>
<polygon fill="midnightblue" stroke="midnightblue" points="515.058,-28.1871 521.339,-19.6545 511.108,-22.4082 515.058,-28.1871"/>
</g>
<!-- Node10 -->
<g id="node10" class="node"><title>Node10</title>
<polygon fill="white" stroke="#bfbfbf" points="576.5,-0.5 576.5,-19.5 641.5,-19.5 641.5,-0.5 576.5,-0.5"/>
<text text-anchor="middle" x="609" y="-7.5" font-family="Helvetica,sans-Serif" font-size="10.00">netinet/in.h</text>
</g>
<!-- Node1&#45;&gt;Node10 -->
<g id="edge9" class="edge"><title>Node1&#45;&gt;Node10</title>
<path fill="none" stroke="midnightblue" d="M479.402,-56.4435C505.197,-47.3986 546.077,-33.064 575.018,-22.9158"/>
<polygon fill="midnightblue" stroke="midnightblue" points="576.434,-26.1283 584.712,-19.5164 574.118,-19.5226 576.434,-26.1283"/>
</g>
<!-- Node11 -->
<g id="node11" class="node"><title>Node11</title>
<polygon fill="white" stroke="#bfbfbf" points="659.5,-0.5 659.5,-19.5 708.5,-19.5 708.5,-0.5 659.5,-0.5"/>
<text text-anchor="middle" x="684" y="-7.5" font-family="Helvetica,sans-Serif" font-size="10.00">netdb.h</text>
</g>
<!-- Node1&#45;&gt;Node11 -->
<g id="edge10" class="edge"><title>Node1&#45;&gt;Node11</title>
<path fill="none" stroke="midnightblue" d="M481.712,-59.2274C517.666,-51.3796 583.85,-36.6612 649.122,-20.4049"/>
<polygon fill="midnightblue" stroke="midnightblue" points="650.312,-23.7148 659.162,-17.8899 648.611,-16.9246 650.312,-23.7148"/>
</g>
<!-- Node12 -->
<g id="node12" class="node"><title>Node12</title>
<polygon fill="white" stroke="#bfbfbf" points="727,-0.5 727,-19.5 777,-19.5 777,-0.5 727,-0.5"/>
<text text-anchor="middle" x="752" y="-7.5" font-family="Helvetica,sans-Serif" font-size="10.00">signal.h</text>
</g>
<!-- Node1&#45;&gt;Node12 -->
<g id="edge11" class="edge"><title>Node1&#45;&gt;Node12</title>
<path fill="none" stroke="midnightblue" d="M481.656,-61.2439C527.65,-54.5905 625.055,-39.7451 716.806,-20.1022"/>
<polygon fill="midnightblue" stroke="midnightblue" points="717.777,-23.4731 726.81,-17.9361 716.296,-16.6316 717.777,-23.4731"/>
</g>
<!-- Node13 -->
<g id="node13" class="node"><title>Node13</title>
<g id="a_node13"><a xlink:href="debug_8h.html" target="_top" xlink:title="Macros for debug and verbose options. ">
<polygon fill="white" stroke="black" points="795.5,-0.5 795.5,-19.5 846.5,-19.5 846.5,-0.5 795.5,-0.5"/>
<text text-anchor="middle" x="821" y="-7.5" font-family="Helvetica,sans-Serif" font-size="10.00">debug.h</text>
</a>
</g>
</g>
<!-- Node1&#45;&gt;Node13 -->
<g id="edge12" class="edge"><title>Node1&#45;&gt;Node13</title>
<path fill="none" stroke="midnightblue" d="M481.774,-62.4302C536.764,-56.9244 666.527,-42.7619 785.461,-19.8831"/>
<polygon fill="midnightblue" stroke="midnightblue" points="786.319,-23.2819 795.464,-17.9329 784.979,-16.4112 786.319,-23.2819"/>
</g>
<!-- Node14 -->
<g id="node14" class="node"><title>Node14</title>
<g id="a_node14"><a xlink:href="defs_8h.html" target="_top" xlink:title="Useful definitions. ">
<polygon fill="white" stroke="black" points="865,-0.5 865,-19.5 909,-19.5 909,-0.5 865,-0.5"/>
<text text-anchor="middle" x="887" y="-7.5" font-family="Helvetica,sans-Serif" font-size="10.00">defs.h</text>
</a>
</g>
</g>
<!-- Node1&#45;&gt;Node14 -->
<g id="edge13" class="edge"><title>Node1&#45;&gt;Node14</title>
<path fill="none" stroke="midnightblue" d="M481.514,-63.5942C544.657,-59.9147 708.94,-48.39 854.742,-19.9376"/>
<polygon fill="midnightblue" stroke="midnightblue" points="855.634,-23.3289 864.762,-17.9494 854.272,-16.4628 855.634,-23.3289"/>
</g>
</g>
</svg>
