<?xml version="1.0" encoding="UTF-8" standalone="no"?>
<!DOCTYPE svg PUBLIC "-//W3C//DTD SVG 1.1//EN"
 "http://www.w3.org/Graphics/SVG/1.1/DTD/svg11.dtd">
<!-- Generated by graphviz version 2.38.0 (20140413.2041)
 -->
<!-- Title: sv_list.h Pages: 1 -->
<svg width="94pt" height="196pt"
 viewBox="0.00 0.00 94.00 196.00" xmlns="http://www.w3.org/2000/svg" xmlns:xlink="http://www.w3.org/1999/xlink">
<g id="graph0" class="graph" transform="scale(1 1) rotate(0) translate(4 192)">
<title>sv_list.h</title>
<polygon fill="white" stroke="none" points="-4,4 -4,-192 90,-192 90,4 -4,4"/>
<!-- Node1 -->
<g id="node1" class="node"><title>Node1</title>
<polygon fill="#bfbfbf" stroke="black" points="16.5,-168.5 16.5,-187.5 69.5,-187.5 69.5,-168.5 16.5,-168.5"/>
<text text-anchor="middle" x="43" y="-175.5" font-family="Helvetica,sans-Serif" font-size="10.00">sv_list.h</text>
</g>
<!-- Node2 -->
<g id="node2" class="node"><title>Node2</title>
<g id="a_node2"><a xlink:href="msgserv__utils_8h.html" target="_top" xlink:title="Function prototypes for the functions used in msgserv as subroutines. ">
<polygon fill="white" stroke="black" points="0,-112.5 0,-131.5 86,-131.5 86,-112.5 0,-112.5"/>
<text text-anchor="middle" x="43" y="-119.5" font-family="Helvetica,sans-Serif" font-size="10.00">msgserv_utils.h</text>
</a>
</g>
</g>
<!-- Node1&#45;&gt;Node2 -->
<g id="edge1" class="edge"><title>Node1&#45;&gt;Node2</title>
<path fill="none" stroke="midnightblue" d="M43,-157.805C43,-148.91 43,-138.78 43,-131.751"/>
<polygon fill="midnightblue" stroke="midnightblue" points="39.5001,-158.083 43,-168.083 46.5001,-158.083 39.5001,-158.083"/>
</g>
<!-- Node3 -->
<g id="node3" class="node"><title>Node3</title>
<g id="a_node3"><a xlink:href="msgserv_8h.html" target="_top" xlink:title="Function prototypes the message server. ">
<polygon fill="white" stroke="black" points="12,-56.5 12,-75.5 74,-75.5 74,-56.5 12,-56.5"/>
<text text-anchor="middle" x="43" y="-63.5" font-family="Helvetica,sans-Serif" font-size="10.00">msgserv.h</text>
</a>
</g>
</g>
<!-- Node2&#45;&gt;Node3 -->
<g id="edge2" class="edge"><title>Node2&#45;&gt;Node3</title>
<path fill="none" stroke="midnightblue" d="M43,-101.805C43,-92.9102 43,-82.7798 43,-75.7511"/>
<polygon fill="midnightblue" stroke="midnightblue" points="39.5001,-102.083 43,-112.083 46.5001,-102.083 39.5001,-102.083"/>
</g>
<!-- Node4 -->
<g id="node4" class="node"><title>Node4</title>
<g id="a_node4"><a xlink:href="msgserv_8c.html" target="_top" xlink:title="Message Server Application. ">
<polygon fill="white" stroke="black" points="12,-0.5 12,-19.5 74,-19.5 74,-0.5 12,-0.5"/>
<text text-anchor="middle" x="43" y="-7.5" font-family="Helvetica,sans-Serif" font-size="10.00">msgserv.c</text>
</a>
</g>
</g>
<!-- Node3&#45;&gt;Node4 -->
<g id="edge3" class="edge"><title>Node3&#45;&gt;Node4</title>
<path fill="none" stroke="midnightblue" d="M43,-45.8045C43,-36.9102 43,-26.7798 43,-19.7511"/>
<polygon fill="midnightblue" stroke="midnightblue" points="39.5001,-46.083 43,-56.083 46.5001,-46.083 39.5001,-46.083"/>
</g>
</g>
</svg>
